<svg width="32" height="32" viewBox="0 0 32 32" fill="none" xmlns="http://www.w3.org/2000/svg">
<path d="M26.6667 9.33331H25.1067C24.7549 9.33359 24.4064 9.26422 24.0815 9.12921C23.7565 8.9942 23.4615 8.7962 23.2134 8.54665L21.1734 6.50665C20.424 5.75629 19.4073 5.33425 18.3467 5.33331H13.6534C12.5929 5.33425 11.5762 5.75629 10.8267 6.50665L8.78675 8.54665C8.53867 8.7962 8.24366 8.9942 7.91871 9.12921C7.59376 9.26422 7.2453 9.33359 6.89341 9.33331H5.33341C4.62617 9.33331 3.94789 9.61426 3.4478 10.1144C2.9477 10.6145 2.66675 11.2927 2.66675 12V24C2.66675 24.7072 2.9477 25.3855 3.4478 25.8856C3.94789 26.3857 4.62617 26.6666 5.33341 26.6666H26.6667C27.374 26.6666 28.0523 26.3857 28.5524 25.8856C29.0525 25.3855 29.3334 24.7072 29.3334 24V12C29.3334 11.2927 29.0525 10.6145 28.5524 10.1144C28.0523 9.61426 27.374 9.33331 26.6667 9.33331V9.33331ZM16.0001 22.6666C14.9452 22.6666 13.9141 22.3539 13.037 21.7678C12.16 21.1818 11.4764 20.3488 11.0727 19.3743C10.6691 18.3998 10.5634 17.3274 10.7692 16.2928C10.975 15.2583 11.483 14.308 12.2288 13.5621C12.9747 12.8162 13.925 12.3082 14.9596 12.1025C15.9942 11.8967 17.0665 12.0023 18.0411 12.406C19.0156 12.8096 19.8486 13.4932 20.4346 14.3703C21.0206 15.2473 21.3334 16.2785 21.3334 17.3333C21.3334 18.7478 20.7715 20.1044 19.7713 21.1045C18.7711 22.1047 17.4146 22.6666 16.0001 22.6666ZM19.0134 16.8C17.9379 16.2775 17.0692 15.4088 16.5467 14.3333C16.4954 14.2324 16.4172 14.1477 16.3207 14.0886C16.2242 14.0294 16.1133 13.9981 16.0001 13.9981C15.8869 13.9981 15.7759 14.0294 15.6794 14.0886C15.583 14.1477 15.5047 14.2324 15.4534 14.3333C14.9309 15.4088 14.0622 16.2775 12.9867 16.8C12.8888 16.8499 12.8068 16.9264 12.7503 17.0207C12.6937 17.1151 12.6647 17.2234 12.6667 17.3333C12.672 17.4364 12.7043 17.5363 12.7605 17.623C12.8167 17.7096 12.8947 17.7798 12.9867 17.8266C14.0694 18.3501 14.9433 19.224 15.4667 20.3066C15.5135 20.3987 15.5838 20.4767 15.6704 20.5329C15.757 20.5891 15.857 20.6214 15.9601 20.6266H16.0001C16.1032 20.6214 16.2031 20.5891 16.2897 20.5329C16.3764 20.4767 16.4466 20.3987 16.4934 20.3066C17.0169 19.224 17.8908 18.3501 18.9734 17.8266C19.0729 17.7854 19.1592 17.7175 19.2227 17.6305C19.2862 17.5435 19.3245 17.4407 19.3334 17.3333V17.3333C19.3354 17.2234 19.3065 17.1151 19.2499 17.0207C19.1933 16.9264 19.1114 16.8499 19.0134 16.8Z" fill="#3865F3"/>
</svg>
