<svg width="32" height="32" viewBox="0 0 32 32" fill="white" xmlns="http://www.w3.org/2000/svg">
<path d="M26.6667 9.33333H25.1067C24.7548 9.33361 24.4063 9.26425 24.0814 9.12923C23.7564 8.99422 23.4614 8.79622 23.2133 8.54667L21.1733 6.50667C20.4239 5.75631 19.4072 5.33427 18.3467 5.33333H13.6533C12.5928 5.33427 11.5761 5.75631 10.8267 6.50667L8.78667 8.54667C8.53859 8.79622 8.24357 8.99422 7.91862 9.12923C7.59367 9.26425 7.24522 9.33361 6.89333 9.33333H5.33333C4.62609 9.33333 3.94781 9.61429 3.44771 10.1144C2.94762 10.6145 2.66667 11.2928 2.66667 12V24C2.66667 24.7072 2.94762 25.3855 3.44771 25.8856C3.94781 26.3857 4.62609 26.6667 5.33333 26.6667H26.6667C27.3739 26.6667 28.0522 26.3857 28.5523 25.8856C29.0524 25.3855 29.3333 24.7072 29.3333 24V12C29.3333 11.2928 29.0524 10.6145 28.5523 10.1144C28.0522 9.61429 27.3739 9.33333 26.6667 9.33333V9.33333ZM16 22.6667C14.9452 22.6667 13.914 22.3539 13.037 21.7678C12.1599 21.1818 11.4763 20.3489 11.0726 19.3743C10.669 18.3998 10.5634 17.3274 10.7691 16.2929C10.9749 15.2583 11.4829 14.308 12.2288 13.5621C12.9746 12.8162 13.925 12.3083 14.9595 12.1025C15.9941 11.8967 17.0664 12.0023 18.041 12.406C19.0155 12.8096 19.8485 13.4932 20.4345 14.3703C21.0205 15.2474 21.3333 16.2785 21.3333 17.3333C21.3333 18.7478 20.7714 20.1044 19.7712 21.1046C18.771 22.1048 17.4145 22.6667 16 22.6667ZM19.0133 16.8C17.9379 16.2775 17.0691 15.4088 16.5467 14.3333C16.4953 14.2325 16.4171 14.1477 16.3206 14.0886C16.2242 14.0294 16.1132 13.9981 16 13.9981C15.8868 13.9981 15.7758 14.0294 15.6794 14.0886C15.5829 14.1477 15.5047 14.2325 15.4533 14.3333C14.9309 15.4088 14.0621 16.2775 12.9867 16.8C12.8887 16.85 12.8068 16.9265 12.7502 17.0208C12.6936 17.1151 12.6647 17.2234 12.6667 17.3333C12.6719 17.4364 12.7042 17.5364 12.7604 17.623C12.8166 17.7096 12.8946 17.7799 12.9867 17.8267C14.0693 18.3501 14.9432 19.2241 15.4667 20.3067C15.5135 20.3987 15.5837 20.4768 15.6703 20.5329C15.757 20.5891 15.8569 20.6215 15.96 20.6267H16C16.1031 20.6215 16.203 20.5891 16.2897 20.5329C16.3763 20.4768 16.4465 20.3987 16.4933 20.3067C17.0168 19.2241 17.8907 18.3501 18.9733 17.8267C19.0728 17.7854 19.1591 17.7176 19.2226 17.6305C19.2861 17.5435 19.3244 17.4407 19.3333 17.3333V17.3333C19.3353 17.2234 19.3064 17.1151 19.2498 17.0208C19.1932 16.9265 19.1113 16.85 19.0133 16.8Z" fill="white"/>
</svg>
