<svg width="37" height="37" viewBox="0 0 37 37" fill="none" xmlns="http://www.w3.org/2000/svg">
<path d="M15.2008 27.75C14.9895 27.7493 14.7805 27.7052 14.5869 27.6203C14.3933 27.5355 14.2192 27.4117 14.0754 27.2567L6.58293 19.2863C6.30285 18.9878 6.15281 18.5903 6.16582 18.1812C6.17883 17.7721 6.35382 17.3849 6.6523 17.1048C6.95078 16.8247 7.3483 16.6747 7.7574 16.6877C8.1665 16.7007 8.55368 16.8757 8.83376 17.1742L15.1854 23.9421L28.1508 9.75876C28.2824 9.59492 28.4461 9.4597 28.6318 9.36142C28.8176 9.26314 29.0214 9.20386 29.2309 9.18724C29.4404 9.17061 29.6511 9.19699 29.85 9.26474C30.0489 9.33249 30.2318 9.4402 30.3876 9.58124C30.5434 9.72227 30.6687 9.89367 30.7558 10.0849C30.8429 10.2761 30.89 10.4831 30.8943 10.6932C30.8985 10.9033 30.8597 11.1121 30.7803 11.3066C30.7009 11.5012 30.5825 11.6774 30.4325 11.8246L16.3417 27.2413C16.1993 27.3991 16.0258 27.5257 15.8321 27.6133C15.6385 27.7008 15.4288 27.7474 15.2163 27.75H15.2008Z" fill="white"/>
</svg>
