<svg width="14" height="15" viewBox="0 0 14 15" fill="none" xmlns="http://www.w3.org/2000/svg">
<path d="M4.48807 7.48465C4.48748 7.38236 4.50709 7.28096 4.54576 7.18627C4.58444 7.09157 4.64144 7.00544 4.71347 6.93281L7.82245 3.82383C7.89492 3.75136 7.98096 3.69387 8.07564 3.65465C8.17033 3.61543 8.27181 3.59525 8.3743 3.59525C8.47679 3.59525 8.57827 3.61543 8.67296 3.65465C8.76764 3.69387 8.85367 3.75136 8.92614 3.82383C8.99861 3.8963 9.0561 3.98233 9.09532 4.07702C9.13454 4.1717 9.15472 4.27318 9.15472 4.37567C9.15472 4.47816 9.13454 4.57964 9.09532 4.67433C9.0561 4.76901 8.99861 4.85505 8.92614 4.92752L6.35346 7.48465L8.8251 10.0496C8.90461 10.1211 8.9685 10.2082 9.01279 10.3055C9.05709 10.4028 9.08082 10.5083 9.08251 10.6152C9.08421 10.7221 9.06383 10.8282 9.02264 10.9269C8.98145 11.0255 8.92035 11.1147 8.84315 11.1886C8.76595 11.2626 8.67431 11.3199 8.57398 11.3568C8.47364 11.3938 8.36675 11.4096 8.26001 11.4034C8.15327 11.3972 8.04896 11.369 7.95361 11.3206C7.85826 11.2722 7.77392 11.2046 7.70587 11.1222L4.7057 8.01318C4.56866 7.87104 4.49085 7.68208 4.48807 7.48465Z" fill="#3865F3"/>
</svg>
