<svg width="19" height="19" viewBox="0 0 19 19" fill="none" xmlns="http://www.w3.org/2000/svg">
<path d="M9.23673 12.6666C9.09791 12.6674 8.9603 12.6408 8.83178 12.5883C8.70326 12.5358 8.58637 12.4585 8.4878 12.3607L4.26847 8.14139C4.17012 8.04304 4.0921 7.92628 4.03888 7.79778C3.98565 7.66928 3.95825 7.53155 3.95825 7.39246C3.95825 7.25337 3.98565 7.11564 4.03888 6.98714C4.0921 6.85864 4.17012 6.74188 4.26847 6.64353C4.36682 6.54518 4.48358 6.46716 4.61208 6.41394C4.74058 6.36071 4.87831 6.33331 5.0174 6.33331C5.15649 6.33331 5.29422 6.36071 5.42272 6.41394C5.55122 6.46716 5.66798 6.54518 5.76633 6.64353L9.23673 10.135L12.7177 6.78066C12.8147 6.67276 12.933 6.58604 13.0651 6.52593C13.1971 6.46582 13.3402 6.43361 13.4853 6.43131C13.6304 6.42901 13.7744 6.45668 13.9083 6.51257C14.0422 6.56847 14.1632 6.6514 14.2636 6.75617C14.364 6.86094 14.4417 6.9853 14.4918 7.12147C14.542 7.25764 14.5635 7.4027 14.555 7.54757C14.5466 7.69243 14.5083 7.834 14.4426 7.9634C14.377 8.0928 14.2853 8.20726 14.1734 8.29962L9.95402 12.3713C9.76112 12.5573 9.50467 12.6629 9.23673 12.6666Z" fill="#94959B"/>
</svg>
