<svg width="14" height="15" viewBox="0 0 14 15" fill="none" xmlns="http://www.w3.org/2000/svg">
<path d="M4.48813 7.48465C4.48754 7.38236 4.50715 7.28096 4.54583 7.18627C4.58451 7.09157 4.6415 7.00544 4.71353 6.93281L7.82252 3.82383C7.89498 3.75136 7.98102 3.69387 8.0757 3.65465C8.17039 3.61543 8.27187 3.59525 8.37436 3.59525C8.47685 3.59525 8.57833 3.61543 8.67302 3.65465C8.7677 3.69387 8.85373 3.75136 8.9262 3.82383C8.99867 3.8963 9.05616 3.98233 9.09538 4.07702C9.1346 4.1717 9.15479 4.27318 9.15479 4.37567C9.15479 4.47816 9.1346 4.57964 9.09538 4.67433C9.05616 4.76901 8.99867 4.85505 8.9262 4.92752L6.35352 7.48465L8.82516 10.0496C8.90467 10.1211 8.96856 10.2082 9.01285 10.3055C9.05715 10.4028 9.08088 10.5083 9.08258 10.6152C9.08427 10.7221 9.06389 10.8282 9.0227 10.9269C8.98151 11.0255 8.92041 11.1147 8.84321 11.1886C8.76601 11.2626 8.67437 11.3199 8.57404 11.3568C8.4737 11.3938 8.36682 11.4096 8.26007 11.4034C8.15333 11.3972 8.04902 11.369 7.95367 11.3206C7.85832 11.2722 7.77398 11.2046 7.70593 11.1222L4.70576 8.01318C4.56872 7.87104 4.49091 7.68208 4.48813 7.48465Z" fill="#3865F3"/>
</svg>
