<svg width="61" height="61" viewBox="0 0 61 61" fill="none" xmlns="http://www.w3.org/2000/svg">
<circle cx="30.5" cy="30.5" r="30.5" fill="#3865F3"/>
<path d="M42.949 22.7194H41.1284C40.7177 22.7197 40.311 22.6388 39.9318 22.4812C39.5525 22.3236 39.2082 22.0925 38.9187 21.8013L36.5378 19.4204C35.6632 18.5447 34.4766 18.0521 33.2388 18.051H27.7613C26.5236 18.0521 25.337 18.5447 24.4623 19.4204L22.0814 21.8013C21.7919 22.0925 21.4476 22.3236 21.0684 22.4812C20.6891 22.6388 20.2824 22.7197 19.8718 22.7194H18.0511C17.2257 22.7194 16.4341 23.0473 15.8504 23.6309C15.2667 24.2146 14.9388 25.0062 14.9388 25.8316V39.8367C14.9388 40.6622 15.2667 41.4538 15.8504 42.0374C16.4341 42.6211 17.2257 42.949 18.0511 42.949H42.949C43.7745 42.949 44.5661 42.6211 45.1497 42.0374C45.7334 41.4538 46.0613 40.6622 46.0613 39.8367V25.8316C46.0613 25.0062 45.7334 24.2146 45.1497 23.6309C44.5661 23.0473 43.7745 22.7194 42.949 22.7194ZM30.5001 38.2806C29.269 38.2806 28.0655 37.9156 27.0419 37.2316C26.0183 36.5476 25.2205 35.5755 24.7494 34.4381C24.2783 33.3008 24.155 32.0492 24.3952 30.8418C24.6354 29.6344 25.2282 28.5253 26.0987 27.6547C26.9692 26.7842 28.0783 26.1914 29.2857 25.9512C30.4932 25.7111 31.7447 25.8343 32.8821 26.3054C34.0195 26.7766 34.9916 27.5744 35.6755 28.598C36.3595 29.6216 36.7246 30.825 36.7246 32.0561C36.7246 33.707 36.0688 35.2902 34.9014 36.4575C33.7341 37.6248 32.1509 38.2806 30.5001 38.2806ZM34.0169 31.4337C32.7617 30.8239 31.7479 29.81 31.1381 28.5549C31.0782 28.4371 30.9869 28.3383 30.8743 28.2692C30.7617 28.2001 30.6322 28.1636 30.5001 28.1636C30.368 28.1636 30.2385 28.2001 30.1259 28.2692C30.0132 28.3383 29.9219 28.4371 29.8621 28.5549C29.2523 29.81 28.2384 30.8239 26.9832 31.4337C26.8689 31.492 26.7733 31.5813 26.7072 31.6913C26.6412 31.8014 26.6074 31.9278 26.6098 32.0561C26.6158 32.1765 26.6536 32.2931 26.7192 32.3942C26.7847 32.4953 26.8758 32.5773 26.9832 32.6319C28.2467 33.2428 29.2667 34.2628 29.8776 35.5263C29.9322 35.6337 30.0142 35.7248 30.1153 35.7904C30.2164 35.8559 30.333 35.8937 30.4534 35.8997H30.5001C30.6204 35.8937 30.737 35.8559 30.8381 35.7904C30.9392 35.7248 31.0212 35.6337 31.0758 35.5263C31.6867 34.2628 32.7067 33.2428 33.9702 32.6319C34.0864 32.5837 34.187 32.5046 34.2611 32.403C34.3352 32.3014 34.38 32.1814 34.3904 32.0561C34.3927 31.9278 34.3589 31.8014 34.2929 31.6913C34.2269 31.5813 34.1312 31.492 34.0169 31.4337Z" fill="white"/>
</svg>
