<svg width="34" height="33" viewBox="0 0 34 33" fill="none" xmlns="http://www.w3.org/2000/svg">
<path d="M3.02107 21.7501H29.6723C29.9785 21.7501 30.2817 21.6897 30.5645 21.5723C30.8472 21.4549 31.1041 21.2829 31.3203 21.0661C31.5365 20.8493 31.7078 20.592 31.8244 20.3089C31.941 20.0258 32.0006 19.7225 31.9998 19.4163C31.9994 18.9018 31.8286 18.402 31.514 17.9949C31.1994 17.5878 30.7588 17.2964 30.2611 17.1663L29.0861 16.8588C26.4237 16.1625 23.9001 15.0155 21.6248 13.4676L15.0123 8.96756C14.7662 8.80077 14.4684 8.72795 14.1731 8.76237C13.8778 8.79678 13.6047 8.93615 13.4036 9.15506L12.3661 10.2801C11.892 10.7971 11.3128 11.2069 10.6675 11.4818C10.0221 11.7568 9.32542 11.8907 8.62409 11.8745C7.92277 11.8583 7.23302 11.6923 6.60105 11.3878C5.96909 11.0833 5.40951 10.6472 4.95982 10.1088C4.70027 9.7969 4.37547 9.5457 4.00832 9.37292C3.64117 9.20015 3.24059 9.10999 2.83482 9.10881C2.72473 9.10763 2.61552 9.12847 2.5136 9.1701C2.41168 9.21172 2.31911 9.2733 2.24132 9.3512C2.16353 9.4291 2.1021 9.52177 2.06063 9.62375C2.01915 9.72573 1.99848 9.83497 1.99982 9.94506V20.7226C1.99899 20.8572 2.0248 20.9907 2.07575 21.1153C2.12671 21.2399 2.2018 21.3532 2.29672 21.4487C2.39163 21.5442 2.50449 21.62 2.6288 21.6717C2.75312 21.7234 2.88643 21.7501 3.02107 21.7501Z" fill="#3865F3" stroke="#3865F3" stroke-width="2.75472" stroke-miterlimit="10"/>
<path d="M2.62476 21.75V23.0625C2.62476 23.3775 2.74987 23.6795 2.97257 23.9022C3.19527 24.1249 3.49731 24.25 3.81226 24.25H12.8748L13.9373 23.25H16.2498L17.1248 24.125H24.7223C26.6748 24.125 28.5617 23.4201 30.036 22.14L30.6723 21.525" fill="#3865F3"/>
<path d="M2.62476 21.75V23.0625C2.62476 23.3775 2.74987 23.6795 2.97257 23.9022C3.19527 24.1249 3.49731 24.25 3.81226 24.25H12.8748L13.9373 23.25H16.2498L17.1248 24.125H24.7223C26.6748 24.125 28.5617 23.4201 30.036 22.14L30.6723 21.525" stroke="#3865F3" stroke-width="2.75472" stroke-miterlimit="10"/>
<path d="M1.99976 12.1812C3.65101 12.8625 4.74976 12.2825 5.27851 10.465" stroke="#3865F3" stroke-width="2.75472" stroke-miterlimit="10"/>
<path d="M17.3935 10.5913L14.7197 13.2651" stroke="#3865F3" stroke-width="2.75472" stroke-miterlimit="10"/>
<path d="M19.3936 11.4663L16.9536 13.9063" stroke="#3865F3" stroke-width="2.75472" stroke-miterlimit="10"/>
<path d="M20.8161 12.9187L18.9536 14.7812" stroke="#3865F3" stroke-width="2.75472" stroke-miterlimit="10"/>
<path d="M7.79102 13.9062C7.79102 13.9062 7.93602 16.1062 10.8335 15.9937C14.8435 15.8375 12.3335 18.6187 19.1248 19.4937" stroke="#3865F3" stroke-width="2.75472" stroke-miterlimit="10"/>
</svg>
