<svg width="86" height="46" viewBox="0 0 86 46" fill="none" xmlns="http://www.w3.org/2000/svg">
<path fill-rule="evenodd" clip-rule="evenodd" d="M30.9163 0.115456C34.0717 0.462763 37.0457 1.60105 39.6133 3.71351C41.844 5.54832 43.5284 7.79818 44.5824 10.4736C45.6162 13.0946 45.9338 15.8168 45.5882 18.6134C45.3138 20.8043 44.5948 22.9179 43.4743 24.8277C43.1992 25.3047 43.1654 25.2942 42.872 24.8277C41.8758 23.239 40.4588 22.2076 38.6171 21.784C37.9665 21.6342 37.4009 21.9042 36.952 22.3803C36.7233 22.6226 36.5167 22.8869 36.3101 23.1484C36.0592 23.4651 35.7416 23.4909 35.4067 23.3392C35.0368 23.1746 34.7104 22.9278 34.453 22.6179C34.2532 22.3717 34.2821 22.1589 34.5283 21.9643C34.7456 21.8085 34.9517 21.6379 35.1451 21.4538C35.7107 20.8603 35.3874 19.62 34.6094 19.3404C34.2821 19.2221 34.035 19.3938 33.7889 19.5541C33.5427 19.7144 33.3062 19.848 33.0041 19.8089C32.5215 19.7459 32.2618 19.4835 32.1576 18.9339C32.0611 18.4168 32.2541 17.9722 32.6808 17.7422C32.7985 17.6792 32.924 17.6296 33.0437 17.5695C33.314 17.4331 33.6981 17.3453 33.6586 16.9741C33.6074 16.4971 33.425 16.0315 33.0099 15.7338C32.8024 15.584 32.5649 15.7338 32.3651 15.8292C32.0755 15.9752 31.8082 16.1498 31.5282 16.3062C31.0118 16.6011 30.5147 16.5495 30.2193 16.1736C29.8033 15.645 29.8014 14.9972 30.2338 14.5764C30.5755 14.2453 31.0012 14.043 31.4404 13.8694C31.5273 13.835 31.6219 13.8188 31.7097 13.7854C32.3004 13.5612 32.4076 13.4142 32.0784 12.8818C31.6508 12.1882 31.8217 11.6252 32.2551 11.0489C32.3302 10.9385 32.3964 10.8224 32.453 10.7016C32.6769 10.2704 32.5852 9.95263 32.1392 9.75417C31.0415 9.28038 29.8656 9.00815 28.6691 8.95079C28.3294 8.92979 28.1865 9.07291 28.09 9.41068C27.8969 10.1148 28.006 10.8352 27.8651 11.548C27.6141 11.1215 27.6353 10.632 27.5475 10.1759C27.4432 9.63013 27.172 9.27901 26.7299 8.97273C25.6787 8.24663 24.5774 7.62167 23.3747 7.1799C23.0469 7.05932 22.7104 6.96363 22.3679 6.89366C21.9818 6.81542 21.6526 6.91847 21.3563 7.2257C20.4229 8.19415 19.6883 9.30668 18.9432 10.4078C18.0986 11.6529 17.3148 12.94 16.4711 14.1871C16.2404 14.5277 16.2945 14.7233 16.5908 14.9437C18.457 16.3323 20.3232 17.7225 22.1893 19.1143C23.7743 20.2987 25.3576 21.4847 26.9394 22.6723L31.5253 26.0843C31.9114 26.3858 32.3468 26.4802 32.8371 26.506L38.9627 26.7541C39.1118 26.7676 39.2519 26.8305 39.3604 26.9325C39.4501 27.0212 39.5225 27.1166 39.4714 27.2502C39.4503 27.3 39.413 27.3413 39.3655 27.3678C39.3179 27.3942 39.2628 27.4042 39.2088 27.3962L33.4404 27.2474C32.9298 27.2226 32.4192 27.1968 31.9105 27.1519C31.5881 27.1243 31.3217 26.9411 31.0997 26.7331L27.1044 23.8707C25.6559 22.8256 24.2087 21.7719 22.7627 20.7096C20.7762 19.2549 18.7913 17.7979 16.808 16.3387C16.5059 16.1164 16.1931 15.9093 15.9035 15.6708C15.7356 15.5324 15.6564 15.5238 15.5503 15.7328C15.2433 16.3387 14.9026 16.9274 14.6024 17.5352C14.4923 17.7594 14.3765 17.789 14.2163 17.6306C13.7838 17.206 13.3128 17.331 12.8311 17.5104C12.2356 17.7327 12.1661 17.6812 12.1554 17.0514C12.1467 16.0801 12.1178 15.104 12.2703 14.1432C12.4707 12.8846 12.8079 11.6511 13.2761 10.464C14.2578 7.96134 15.8051 5.84697 17.8206 4.07132C19.2358 2.81644 20.8659 1.82068 22.6343 1.13066C23.8892 0.643094 25.1614 0.255714 26.5089 0.117364C27.9737 -0.0387255 29.4513 -0.0393642 30.9163 0.115456V0.115456Z" fill="#3865F3"/>
<path fill-rule="evenodd" clip-rule="evenodd" d="M36.3596 29.7987C34.6221 29.7987 32.8847 29.7987 31.1472 29.7987C30.8918 29.8082 30.6401 29.7355 30.43 29.5916C28.8759 28.5192 27.3161 27.4553 25.761 26.3857C24.0635 25.2172 22.3678 24.0462 20.6741 22.8726C18.8485 21.6055 17.0264 20.3333 15.2078 19.056C14.9182 18.8538 14.6692 18.6085 14.6161 18.2355C14.6016 18.1334 14.5785 18.0141 14.7001 17.9492C14.8024 17.8977 14.8777 17.9702 14.952 18.0275C17.0273 19.6113 19.2117 21.0425 21.3575 22.5272C23.0853 23.7227 24.8267 24.8973 26.5574 26.0871C27.8585 26.9821 29.1542 27.8844 30.4445 28.794C30.6031 28.917 30.7988 28.9842 31.0005 28.9848C34.6241 28.9848 38.2473 28.9848 41.8703 28.9848C42.2516 28.9848 42.4871 28.8617 42.8037 28.5497C42.9147 28.4486 42.9726 28.3885 43.0788 28.4543C43.211 28.5402 43.1145 28.6289 43.0518 28.7196C42.8172 29.064 42.5141 29.3474 42.2188 29.6374C42.0479 29.8054 41.8326 29.7958 41.6126 29.7958L36.3596 29.7987Z" fill="#3865F3"/>
<path d="M9.40841 26.5594V28.6585H3.76838C3.61379 28.689 3.46274 28.7351 3.31761 28.7959C3.17351 28.8552 3.03735 28.9318 2.91219 29.024C2.80173 29.1031 2.70099 29.1947 2.612 29.2968C2.5187 29.4048 2.43384 29.5196 2.35813 29.6403C2.29295 29.7556 2.24238 29.8783 2.20755 30.0058C2.16924 30.1393 2.15744 30.279 2.1728 30.417C2.18834 30.5499 2.22078 30.6804 2.26933 30.8053C2.31566 30.9275 2.36586 31.0496 2.43053 31.1717C2.53985 31.3391 2.66952 31.4926 2.81663 31.6288C2.95894 31.7628 3.11825 31.8779 3.29058 31.9713L7.98272 34.5074C8.4262 34.7939 8.82379 35.1445 9.16227 35.5474C9.49974 35.9489 9.77258 36.3995 9.97115 36.8832C10.002 37.0658 10.0291 37.2486 10.0522 37.4318C10.0759 37.6218 10.0875 37.813 10.087 38.0043V38.2562C10.0873 38.2985 10.0834 38.3407 10.0754 38.3822C10.0674 38.4233 10.0635 38.4652 10.0638 38.5072C10.0191 38.9274 9.91414 39.3393 9.75204 39.7304C9.58989 40.1184 9.37596 40.4832 9.11593 40.8152C8.84108 41.1335 8.50764 41.3974 8.1333 41.5928C7.7527 41.7937 7.33943 41.9271 6.91224 41.9869C6.87979 42.0025 6.84408 42.0104 6.80799 42.0098H0V40.0443H6.24138C6.42895 40.0284 6.61257 39.9819 6.78483 39.9069C6.95951 39.8325 7.12607 39.7408 7.28193 39.633C7.40129 39.5601 7.50681 39.4671 7.59372 39.3582C7.67885 39.2519 7.7526 39.1371 7.81379 39.0157C7.84468 38.9403 7.87171 38.864 7.89488 38.7877C7.91772 38.7134 7.92943 38.6363 7.92963 38.5587C7.94423 38.4835 7.95166 38.4072 7.95183 38.3306V38.1016C7.93657 37.9521 7.9137 37.8034 7.88329 37.6561C7.85303 37.5145 7.79816 37.3793 7.72113 37.2563C7.49336 36.909 7.19405 36.6132 6.84274 36.388C5.99524 35.855 5.1323 35.3407 4.25391 34.8452C3.37552 34.3497 2.48169 33.8726 1.57241 33.414C1.23687 33.1137 0.94167 32.7722 0.694023 32.3978C0.447478 32.0251 0.252684 31.6214 0.114866 31.1975C0.0994222 31.1021 0.087839 31.0114 0.0801169 30.9112C0.0723948 30.8111 0.0685335 30.7099 0.0685335 30.6031V30.4313C0.0691322 30.3733 0.0769124 30.3157 0.0916999 30.2596C0.0919162 30.21 0.0961123 30.1606 0.104248 30.1117C0.112033 30.0538 0.123314 29.9965 0.138032 29.9399C0.169318 29.7236 0.211846 29.5089 0.265447 29.2968C0.31921 29.0851 0.392891 28.8787 0.485527 28.6805C0.739052 28.2932 1.04644 27.9431 1.39866 27.6405C1.74739 27.342 2.14114 27.0993 2.56567 26.921C2.79824 26.8291 3.03813 26.7563 3.28286 26.7035C3.52644 26.6514 3.77357 26.6169 4.02225 26.6004L4.29928 26.5556L9.40841 26.5594Z" fill="#231F20"/>
<path d="M13.1555 26.7416V32.5457C13.5119 32.2248 13.9126 31.9555 14.3456 31.7461C14.7798 31.5347 15.2434 31.3884 15.7211 31.312C15.7779 31.2973 15.8362 31.2897 15.8949 31.2891H16.0686C16.2195 31.2889 16.3703 31.3003 16.5194 31.3234C16.6651 31.3463 16.8157 31.373 16.9702 31.4036C17.4033 31.5045 17.817 31.6743 18.1951 31.9064C18.5673 32.1375 18.9025 32.4225 19.1893 32.7518C19.4954 33.1444 19.7335 33.5845 19.8939 34.0542C20.0546 34.5186 20.1285 35.0081 20.1121 35.4987V42.0117H18.1468V34.9911C18.1308 34.8217 18.0878 34.6559 18.0194 34.4997C17.9448 34.3313 17.8474 34.1737 17.7298 34.0313C17.5374 33.7343 17.2716 33.4907 16.9576 33.3233C16.6404 33.1551 16.2884 33.0611 15.9287 33.0485C15.73 33.0482 15.532 33.0713 15.3389 33.1172C15.1496 33.1619 14.9672 33.2312 14.7964 33.3233C14.6005 33.3819 14.4168 33.4746 14.2539 33.5971C14.0947 33.7166 13.9508 33.8546 13.8253 34.0084C13.6123 34.3249 13.4496 34.6717 13.3427 35.0369C13.2334 35.4096 13.1712 35.7941 13.1574 36.1819V42.0088H11.1689V26.7426L13.1555 26.7416Z" fill="#231F20"/>
<path d="M27.1625 31.3349C27.43 31.3354 27.6971 31.3583 27.9607 31.4036C28.2241 31.4481 28.4827 31.5171 28.7329 31.6097C29.117 31.7458 29.4852 31.9221 29.8314 32.1354C30.1793 32.3497 30.5012 32.6026 30.7909 32.8892C31.0835 33.1799 31.3425 33.5018 31.5631 33.8491C31.7856 34.1979 31.9605 34.5742 32.0834 34.9683C32.2072 35.3548 32.2884 35.7534 32.3256 36.1571C32.3642 36.5673 32.3681 36.98 32.3372 37.3908C32.3067 37.7872 32.2226 38.1777 32.0872 38.552C31.9476 38.9345 31.7694 39.3021 31.5554 39.6493C31.3389 40.0003 31.0831 40.3261 30.7928 40.6206C30.4997 40.9197 30.174 41.186 29.8218 41.4144C29.4753 41.6145 29.1067 41.7746 28.7233 41.8915C28.3383 42.0121 27.9406 42.0889 27.5379 42.1205C27.4598 42.1358 27.3874 42.1472 27.3179 42.1548C27.2448 42.1627 27.1713 42.1665 27.0978 42.1663C27.0257 42.1811 26.9523 42.1887 26.8787 42.1892H26.6586C26.4005 42.1893 26.1426 42.174 25.8864 42.1434C25.6267 42.1116 25.3689 42.066 25.1142 42.0069C24.7238 41.8827 24.3478 41.718 23.9925 41.5156C23.6365 41.3138 23.2998 41.0803 22.9867 40.8181C22.692 40.5269 22.4251 40.2094 22.1894 39.8697C21.9525 39.531 21.7546 39.1671 21.5997 38.7848C21.494 38.4862 21.4092 38.1808 21.3458 37.8708C21.2823 37.5624 21.25 37.2485 21.2493 36.9338V36.659C21.25 36.6209 21.2539 36.5829 21.2609 36.5455C21.2685 36.5 21.2724 36.4541 21.2724 36.4081C21.3034 35.9962 21.3851 35.5896 21.5157 35.1973C21.6431 34.8084 21.8096 34.4331 22.0128 34.0771C22.2244 33.7317 22.4681 33.4066 22.7406 33.1058C23.5801 32.198 24.7112 31.6047 25.9424 31.4265C26.1419 31.396 26.3462 31.3731 26.5553 31.3578C26.759 31.3425 26.9636 31.3425 27.1673 31.3578L27.1625 31.3349ZM27.4405 33.1859C27.3823 33.1862 27.3243 33.1824 27.2667 33.1745C27.2169 33.1672 27.1665 33.1633 27.1161 33.163C27.0597 33.1484 27.0017 33.1407 26.9433 33.1401H26.7657C26.6887 33.1401 26.6117 33.1439 26.535 33.1516C26.4578 33.1592 26.3806 33.163 26.3034 33.163L26.0727 33.2088C25.9935 33.2247 25.916 33.2477 25.841 33.2775C25.5391 33.3509 25.2505 33.4703 24.9858 33.6315C24.7174 33.7965 24.476 34.0008 24.2696 34.2374C24.0908 34.4285 23.9293 34.6348 23.7869 34.8538C23.6438 35.076 23.5272 35.3139 23.4394 35.5627C23.3767 35.8261 23.3306 36.0932 23.3014 36.3623C23.2706 36.6353 23.2628 36.9104 23.2782 37.1847C23.2937 37.4483 23.34 37.7093 23.4163 37.9624C23.4913 38.2154 23.5922 38.4603 23.7174 38.6932C23.8369 38.9326 23.9929 39.1523 24.1798 39.3449C24.367 39.5373 24.5676 39.7165 24.7802 39.8811C25.0084 40.0341 25.2528 40.1621 25.509 40.2628C25.7568 40.3596 26.0164 40.4238 26.2812 40.4536C26.3738 40.4689 26.4665 40.4803 26.5592 40.488C26.6509 40.4956 26.7358 40.4994 26.813 40.4994C26.999 40.4993 27.1847 40.484 27.3681 40.4536C27.5492 40.424 27.7273 40.378 27.8999 40.3162C28.1561 40.243 28.401 40.1354 28.6277 39.9966C28.8585 39.8535 29.0719 39.6848 29.2638 39.4937C29.4683 39.3215 29.6473 39.1217 29.7957 38.9003C29.9457 38.6786 30.0697 38.4407 30.1654 38.1913C30.2403 38.0152 30.2944 37.8311 30.3266 37.6427C30.3581 37.4535 30.3736 37.262 30.3729 37.0702V36.8346C30.3732 36.7542 30.3655 36.6739 30.3498 36.5951C30.3655 36.3264 30.3425 36.0568 30.2812 35.7945C30.2185 35.5335 30.1252 35.2805 30.0032 35.0408C29.8837 34.7876 29.728 34.5527 29.5409 34.3433C29.3615 34.1431 29.1601 33.9632 28.9405 33.8071C28.7262 33.6406 28.4885 33.506 28.2349 33.4073C27.9789 33.3089 27.7107 33.2448 27.4376 33.2165L27.4405 33.1859Z" fill="#231F20"/>
<path d="M38.098 31.2204H38.4677C38.5912 31.2209 38.7147 31.2286 38.8373 31.2433C39.0835 31.2586 39.3345 31.2853 39.5883 31.3234C39.8358 31.3599 40.0796 31.4174 40.3171 31.4952C41.0386 31.7142 41.713 32.0629 42.3065 32.5238C42.6261 32.8071 42.9171 33.1206 43.1752 33.4598C43.4334 33.8016 43.6544 34.1694 43.8345 34.557L36.7881 38.5329L35.8865 36.9796L41.042 34.0313C40.9012 33.8773 40.7506 33.7323 40.5912 33.5972C40.4184 33.4526 40.2281 33.3299 40.0246 33.2317C39.8037 33.1383 39.5759 33.0618 39.3431 33.0027C39.1043 32.9425 38.8603 32.9045 38.6144 32.8892C38.386 32.889 38.158 32.9081 37.9329 32.9464C37.7087 32.9849 37.4881 33.0421 37.2736 33.1172C36.7979 33.2682 36.3686 33.5358 36.0255 33.8949C35.6733 34.2563 35.4121 34.6946 35.263 35.1743C35.2321 35.2812 35.2051 35.3909 35.1819 35.5054C35.1587 35.6199 35.1394 35.7306 35.124 35.8365C35.1084 35.9462 35.1006 36.0568 35.1008 36.1676V36.4996C35.13 37.1942 35.3369 37.8702 35.7022 38.4642C35.877 38.7612 36.0906 39.0342 36.3373 39.2762C36.586 39.5227 36.8615 39.7412 37.1588 39.9279C37.4172 40.0634 37.6933 40.1633 37.9792 40.2246C38.2645 40.2871 38.5558 40.3191 38.848 40.32C39.0169 40.32 39.1829 40.3133 39.3451 40.2981C39.5059 40.2818 39.6646 40.2498 39.819 40.2027C40.0337 40.1265 40.2424 40.035 40.4435 39.9288C40.6434 39.822 40.8364 39.7075 41.0227 39.5853C41.2191 39.4518 41.3978 39.2944 41.5546 39.1169C41.7064 38.9453 41.8382 38.7575 41.9474 38.5568C42.0395 38.3308 42.1131 38.0979 42.1675 37.8603C42.2207 37.6231 42.2556 37.3823 42.2718 37.1399L44.2129 37.5292C44.1807 37.9107 44.099 38.2865 43.9696 38.6474C43.7194 39.3532 43.3165 39.9966 42.7891 40.5328C42.528 40.7991 42.2416 41.04 41.9339 41.2522C41.6184 41.4621 41.2812 41.6383 40.9281 41.7779C40.5834 41.9149 40.2224 42.0072 39.8538 42.0527L39.5758 42.0985L39.2987 42.1434H38.7196C38.5352 42.1434 38.3499 42.1358 38.1646 42.1205C37.9792 42.1052 37.7949 42.0823 37.6105 42.0527C37.2366 42.0214 36.8698 41.9325 36.5236 41.7894C36.1731 41.6473 35.8396 41.4672 35.5294 41.2522C34.9626 40.785 34.4816 40.2247 34.1076 39.5958C33.7316 38.9671 33.4549 38.2853 33.2871 37.574C33.2719 37.4563 33.2642 37.3377 33.2639 37.2191V36.6256C33.2636 36.5449 33.2714 36.4643 33.2871 36.3852C33.2874 36.2132 33.299 36.0414 33.3218 35.8709C33.345 35.6963 33.372 35.5322 33.4029 35.3795C33.4785 35.0167 33.5867 34.6613 33.7263 34.3175C33.8661 33.972 34.0363 33.6394 34.235 33.3233C34.4514 33.0173 34.7035 32.7374 34.986 32.4894C35.2719 32.2376 35.586 32.0189 35.9223 31.8377C36.5902 31.4751 37.3345 31.2716 38.096 31.2433L38.098 31.2204Z" fill="#231F20"/>
<path d="M48.685 26.5136C48.8549 26.4984 49.0122 26.4869 49.1589 26.4793C49.3056 26.4717 49.4552 26.4678 49.6097 26.4678C49.7641 26.4678 49.9147 26.4678 50.0605 26.4793C50.2119 26.4876 50.3626 26.5067 50.5112 26.5365V28.296H48.8008L48.0846 28.4105C47.9493 28.4837 47.8179 28.5636 47.6907 28.65C47.567 28.7352 47.451 28.831 47.3442 28.9362C47.2824 28.9973 47.2284 29.0545 47.183 29.1079C47.1343 29.165 47.0952 29.2294 47.0672 29.2988C47.053 29.34 47.0414 29.3821 47.0324 29.4247C47.0235 29.4674 47.0119 29.5094 46.9977 29.5507C46.9835 29.5919 46.9719 29.634 46.9629 29.6766C46.9549 29.7178 46.9511 29.7597 46.9514 29.8016V31.3578H50.2805V33.2317H46.9514V42.0098H44.9861V29.8693C45.003 29.6691 45.0353 29.4704 45.0826 29.2749C45.1288 29.0766 45.1988 28.8844 45.2911 28.7024C45.3645 28.4958 45.4655 28.2997 45.5913 28.1194C45.7152 27.9439 45.8544 27.7795 46.0073 27.6281C46.1536 27.4819 46.3154 27.3517 46.49 27.2397C46.6679 27.1284 46.8534 27.0293 47.045 26.943C47.3078 26.8359 47.5781 26.7478 47.8539 26.6797C48.1276 26.6124 48.4056 26.563 48.6859 26.5318L48.685 26.5136Z" fill="#231F20"/>
<path d="M53.379 31.4265H51.3442V42.0527H53.379V31.4265Z" fill="#231F20"/>
<path d="M56.5925 28.6843V31.4265H60.5211V33.186H56.6369V39.197C56.6355 39.2318 56.6394 39.2665 56.6484 39.3001C56.6566 39.326 56.6605 39.3531 56.66 39.3802C56.6898 39.4986 56.7325 39.6135 56.7874 39.7228C56.8403 39.8282 56.9149 39.9215 57.0066 39.9966C57.1354 40.0908 57.2807 40.1606 57.4351 40.2027C57.5899 40.2485 57.7485 40.2805 57.9091 40.2981L60.4747 40.2752V42.0117H57.2614C57.0573 41.9958 56.8556 41.9574 56.66 41.8972C56.4643 41.8389 56.2776 41.7545 56.105 41.6463C55.9024 41.5377 55.7127 41.4072 55.5394 41.257C55.3626 41.1061 55.2105 40.9291 55.0886 40.7322C54.9833 40.5696 54.8941 40.3974 54.8222 40.218C54.7532 40.0446 54.703 39.8646 54.6726 39.6808C54.6571 39.5854 54.6455 39.5024 54.6378 39.4174C54.6295 39.3379 54.6253 39.2579 54.6253 39.1779C54.6099 39.099 54.6025 39.0188 54.6031 38.9385V28.6843H56.5925Z" fill="#231F20"/>
<path d="M66.7854 31.3578V33.0485C66.5547 33.0485 66.323 33.06 66.0924 33.0829C65.8654 33.105 65.6409 33.1471 65.4215 33.2088C65.2249 33.2686 65.0353 33.3489 64.8559 33.4483C64.6725 33.5518 64.4985 33.6706 64.3356 33.8033C64.1821 33.9543 64.0429 34.1187 63.9195 34.2946C63.7934 34.4745 63.6921 34.6703 63.6184 34.8767C63.5577 35.1138 63.5116 35.3544 63.4804 35.597C63.4488 35.8356 63.4334 36.0759 63.434 36.3165V42.007H61.4688V31.4265H63.3182V32.7318C63.4411 32.5804 63.5759 32.428 63.7226 32.2747C63.8691 32.1228 64.0364 31.9921 64.2197 31.8864C64.3949 31.7768 64.5809 31.6851 64.7748 31.6126C64.9685 31.5379 65.1698 31.4842 65.3752 31.4523C65.5296 31.4217 65.6802 31.395 65.8259 31.3721C65.9751 31.349 66.1258 31.3376 66.2767 31.3378H66.4041C66.4476 31.3386 66.4906 31.3463 66.5315 31.3607C66.5743 31.3603 66.617 31.3642 66.659 31.3721C66.7006 31.3801 66.743 31.3839 66.7854 31.3836V31.3578Z" fill="#231F20"/>
<path d="M72.8426 31.4265H70.8079V42.0528H72.8426V31.4265Z" fill="#3865F3"/>
<path d="M72.8426 28.8121H70.8079V30.5525H72.8426V28.8121Z" fill="#3865F3"/>
<path d="M68.7999 39.739H65.9341V42.1901H68.7999V39.739Z" fill="#3865F3"/>
<path d="M53.379 28.8121H51.3442V30.5525H53.379V28.8121Z" fill="#231F20"/>
<path d="M79.8001 31.3349C80.0677 31.3354 80.3348 31.3583 80.5984 31.4036C80.8618 31.4481 81.1203 31.5171 81.3706 31.6097C81.7544 31.7456 82.1223 31.9219 82.4681 32.1354C82.8164 32.3494 83.1387 32.6024 83.4285 32.8892C83.7211 33.1799 83.9801 33.5018 84.2007 33.8491C84.4232 34.1979 84.5982 34.5742 84.721 34.9683C84.8475 35.3545 84.9313 35.7531 84.971 36.1571C85.0096 36.5673 85.0135 36.98 84.9826 37.3908C84.9496 37.7875 84.8629 38.1781 84.7249 38.552C84.5853 38.9345 84.4071 39.3021 84.193 39.6493C83.9765 40.0003 83.7207 40.3261 83.4305 40.6206C83.138 40.9196 82.813 41.1859 82.4613 41.4144C82.1149 41.6145 81.7463 41.7746 81.3629 41.8915C80.9759 42.0122 80.5763 42.0887 80.1717 42.1195C80.0955 42.1348 80.0221 42.1463 79.9526 42.1539C79.8795 42.1617 79.8061 42.1655 79.7325 42.1653C79.6605 42.1802 79.5871 42.1878 79.5134 42.1882H79.2934C79.0353 42.1883 78.7774 42.173 78.5211 42.1424C78.2615 42.1106 78.0037 42.0651 77.7489 42.006C77.3586 41.8818 76.9826 41.7171 76.6273 41.5146C75.8887 41.1346 75.2662 40.5663 74.8242 39.8687C74.5872 39.53 74.3894 39.1661 74.2344 38.7839C74.1279 38.4855 74.0431 38.1801 73.9806 37.8698C73.9171 37.5614 73.8848 37.2475 73.884 36.9328V36.658C73.8848 36.62 73.8887 36.582 73.8956 36.5445C73.9033 36.4991 73.9072 36.4531 73.9072 36.4071C73.9384 35.9953 74.0197 35.5888 74.1495 35.1963C74.2765 34.8082 74.4417 34.4333 74.6427 34.0771C74.855 33.7319 75.0989 33.4068 75.3715 33.1058C76.211 32.198 77.3421 31.6047 78.5733 31.4265C78.7731 31.396 78.9777 31.3731 79.1852 31.3578C79.3893 31.3425 79.5942 31.3425 79.7982 31.3578L79.8001 31.3349ZM80.0781 33.1859C80.02 33.1862 79.9619 33.1824 79.9044 33.1745C79.8545 33.1672 79.8042 33.1633 79.7538 33.163C79.6974 33.1485 79.6393 33.1408 79.581 33.1401H79.4073C79.3302 33.1401 79.2532 33.1439 79.1766 33.1516C79.0993 33.1592 79.0221 33.163 78.9449 33.163L78.7142 33.2088C78.635 33.2247 78.5575 33.2477 78.4825 33.2775C78.1806 33.3509 77.8921 33.4703 77.6273 33.6315C77.359 33.7965 77.1175 34.0008 76.9111 34.2374C76.7323 34.4285 76.5708 34.6348 76.4285 34.8538C76.2853 35.076 76.1687 35.3139 76.081 35.5627C76.0182 35.8261 75.9721 36.0932 75.9429 36.3623C75.9116 36.6353 75.9038 36.9104 75.9198 37.1847C75.9352 37.4483 75.9815 37.7093 76.0578 37.9624C76.1328 38.2155 76.2337 38.4603 76.359 38.6932C76.4784 38.9326 76.6344 39.1523 76.8213 39.3449C77.0085 39.5373 77.2091 39.7165 77.4217 39.8811C77.65 40.0339 77.8944 40.1619 78.1505 40.2628C78.3983 40.3595 78.658 40.4237 78.9227 40.4536C79.0154 40.4689 79.108 40.4803 79.2007 40.488C79.2924 40.4956 79.3773 40.4994 79.4546 40.4994C79.6405 40.4993 79.8262 40.484 80.0096 40.4536C80.1907 40.4239 80.3688 40.378 80.5414 40.3162C80.7977 40.243 81.0425 40.1354 81.2692 39.9966C81.5 39.8535 81.7134 39.6848 81.9054 39.4937C82.1098 39.3215 82.2888 39.1217 82.4372 38.9003C82.5872 38.6786 82.7112 38.4407 82.8069 38.1913C82.8813 38.0149 82.9356 37.8309 82.9691 37.6427C82.9997 37.4534 83.0149 37.262 83.0144 37.0702V36.8346C83.0148 36.7542 83.007 36.6739 82.9913 36.5951C83.0071 36.3264 82.984 36.0568 82.9227 35.7945C82.8596 35.5336 82.7663 35.2807 82.6447 35.0408C82.5252 34.7876 82.3695 34.5527 82.1824 34.3433C82.0029 34.1428 81.8012 33.963 81.581 33.8071C81.3672 33.6405 81.1298 33.5058 80.8764 33.4073C80.6204 33.3089 80.3523 33.2448 80.0791 33.2165L80.0781 33.1859Z" fill="#3865F3"/>
</svg>
