<svg width="34" height="32" viewBox="0 0 34 32" fill="none" xmlns="http://www.w3.org/2000/svg">
<path d="M3.02131 21.2501H29.6726C29.9787 21.2501 30.2819 21.1897 30.5647 21.0723C30.8475 20.9549 31.1044 20.7829 31.3206 20.5661C31.5368 20.3493 31.7081 20.092 31.8247 19.8089C31.9413 19.5258 32.0009 19.2225 32.0001 18.9163C31.9997 18.4018 31.8288 17.902 31.5142 17.4949C31.1996 17.0878 30.759 16.7964 30.2613 16.6663L29.0863 16.3588C26.4239 15.6625 23.9004 14.5155 21.6251 12.9676L15.0126 8.46756C14.7665 8.30077 14.4686 8.22795 14.1733 8.26237C13.8781 8.29678 13.605 8.43615 13.4038 8.65506L12.3663 9.78006C11.8922 10.2971 11.3131 10.7069 10.6677 10.9818C10.0223 11.2568 9.32566 11.3907 8.62434 11.3745C7.92302 11.3583 7.23326 11.1923 6.6013 10.8878C5.96933 10.5833 5.40975 10.1472 4.96006 9.60881V9.60881C4.70051 9.2969 4.37572 9.0457 4.00857 8.87292C3.64141 8.70015 3.24083 8.60999 2.83506 8.60881V8.60881C2.72498 8.60763 2.61577 8.62847 2.51385 8.6701C2.41193 8.71172 2.31935 8.7733 2.24157 8.8512C2.16378 8.9291 2.10234 9.02177 2.06087 9.12375C2.0194 9.22573 1.99872 9.33497 2.00006 9.44506V20.2226C1.99924 20.3572 2.02504 20.4907 2.076 20.6153C2.12695 20.7399 2.20205 20.8532 2.29696 20.9487C2.39187 21.0442 2.50473 21.12 2.62905 21.1717C2.75336 21.2234 2.88667 21.2501 3.02131 21.2501Z" fill="#3865F3" stroke="#3865F3" stroke-width="2.75472" stroke-miterlimit="10"/>
<path d="M2.625 21.25V22.5625C2.625 22.8775 2.75011 23.1795 2.97281 23.4022C3.19551 23.6249 3.49756 23.75 3.8125 23.75H12.875L13.9375 22.75H16.25L17.125 23.625H24.7225C26.675 23.625 28.5619 22.9201 30.0362 21.64L30.6725 21.025" fill="#3865F3"/>
<path d="M2.625 21.25V22.5625C2.625 22.8775 2.75011 23.1795 2.97281 23.4022C3.19551 23.6249 3.49756 23.75 3.8125 23.75H12.875L13.9375 22.75H16.25L17.125 23.625H24.7225C26.675 23.625 28.5619 22.9201 30.0362 21.64L30.6725 21.025" stroke="#3865F3" stroke-width="2.75472" stroke-miterlimit="10"/>
<path d="M2 11.6812C3.65125 12.3625 4.75 11.7825 5.27875 9.96497" stroke="#3865F3" stroke-width="2.75472" stroke-miterlimit="10"/>
<path d="M17.3937 10.0913L14.72 12.7651" stroke="#3865F3" stroke-width="2.75472" stroke-miterlimit="10"/>
<path d="M19.3939 10.9663L16.9539 13.4063" stroke="#3865F3" stroke-width="2.75472" stroke-miterlimit="10"/>
<path d="M20.8164 12.4187L18.9539 14.2812" stroke="#3865F3" stroke-width="2.75472" stroke-miterlimit="10"/>
<path d="M7.79126 13.4062C7.79126 13.4062 7.93626 15.6062 10.8338 15.4937C14.8438 15.3375 12.3338 18.1187 19.125 18.9937" stroke="#3865F3" stroke-width="2.75472" stroke-miterlimit="10"/>
</svg>
