<svg width="34" height="35" viewBox="0 0 34 35" fill="none" xmlns="http://www.w3.org/2000/svg">
<path fill-rule="evenodd" clip-rule="evenodd" d="M20.0617 5.83081C18.8034 23.3257 23.8022 18.6028 8.21872 27.8123C3.9128 30.4609 -1.80879 25.3191 2.5705 21.0966C4.96607 19.1915 8.83581 18.174 10.0714 15.4007C10.8754 12.3638 10.4639 9.25496 10.4344 5.83081H20.0617Z" fill="#3865F3" stroke="#3865F3" stroke-width="1.3719" stroke-linecap="round" stroke-linejoin="round"/>
<path fill-rule="evenodd" clip-rule="evenodd" d="M19.8811 15.7837C19.9681 20.029 19.8099 20.9123 15.6899 23.44C15.1562 22.637 14.8728 21.6993 14.8743 20.7414C14.8743 18.0234 17.1102 15.8156 19.8811 15.7837Z" fill="#3865F3" stroke="#3865F3" stroke-width="1.3719" stroke-linecap="round" stroke-linejoin="round"/>
<path fill-rule="evenodd" clip-rule="evenodd" d="M6.21138 28.5506C2.42345 28.9522 -1.11905 24.7151 2.5933 21.1354C2.67692 21.0687 2.76235 21.0031 2.84958 20.9387C5.00033 22.0225 6.47028 24.2157 6.47028 26.7454C6.4707 27.3555 6.38383 27.9628 6.21219 28.5494L6.21138 28.5506Z" fill="#FEFEFE" stroke="#3865F3" stroke-width="1.3719" stroke-linecap="round" stroke-linejoin="round"/>
<path fill-rule="evenodd" clip-rule="evenodd" d="M9.93757 1.5H20.5213C20.7253 1.50047 20.9208 1.57995 21.0651 1.72108C21.2094 1.8622 21.2907 2.05349 21.2913 2.25312V5.07757C21.2908 5.27717 21.2095 5.46844 21.0653 5.6096C20.9211 5.75076 20.7256 5.83031 20.5217 5.83088H9.93757C9.73357 5.83031 9.5381 5.75076 9.39385 5.60961C9.2496 5.46846 9.16831 5.27718 9.16772 5.07757V2.25312C9.16836 2.05354 9.24968 1.86231 9.39392 1.7212C9.53817 1.58009 9.73361 1.50057 9.93757 1.5Z" stroke="#3865F3" stroke-width="1.3719" stroke-linecap="round" stroke-linejoin="round"/>
<path fill-rule="evenodd" clip-rule="evenodd" d="M31.7704 10.754C30.5121 28.2489 35.5109 23.5258 19.9274 32.7357C15.6217 35.3841 9.89992 30.2425 14.2792 26.02C16.6752 24.1147 20.5449 23.098 21.7805 20.3247C22.5845 17.2876 22.1731 14.179 22.1435 10.7548L31.7704 10.754Z" fill="#3865F3" stroke="#3865F3" stroke-width="1.3719" stroke-linecap="round" stroke-linejoin="round"/>
<path fill-rule="evenodd" clip-rule="evenodd" d="M31.5898 20.7068C31.6769 24.9521 31.5187 25.8354 27.3987 28.3631C26.8649 27.5601 26.5815 26.6224 26.583 25.6645C26.583 22.9459 28.8192 20.7387 31.5898 20.7068Z" fill="#FEFEFE" stroke="#3865F3" stroke-width="1.3719" stroke-linecap="round" stroke-linejoin="round"/>
<path fill-rule="evenodd" clip-rule="evenodd" d="M17.9203 33.4734C14.1326 33.8753 10.5899 29.638 14.3022 26.0583C14.3859 25.9918 14.4714 25.9262 14.5587 25.8616C16.7095 26.9453 18.1792 29.1386 18.1792 31.6682C18.1798 32.2783 18.0929 32.8855 17.9211 33.472L17.9203 33.4734Z" fill="#FEFEFE" stroke="#3865F3" stroke-width="1.3719" stroke-linecap="round" stroke-linejoin="round"/>
<path fill-rule="evenodd" clip-rule="evenodd" d="M21.6461 6.4231H32.2298C32.4338 6.42367 32.6292 6.50319 32.7734 6.6443C32.9177 6.78541 32.999 6.97663 32.9996 7.17622V10.0007C32.999 10.2003 32.9177 10.3915 32.7735 10.5326C32.6292 10.6738 32.4338 10.7534 32.2298 10.754H21.6461C21.4421 10.7534 21.2467 10.6738 21.1025 10.5326C20.9583 10.3915 20.877 10.2002 20.8765 10.0007V7.17622C20.877 6.97665 20.9583 6.78542 21.1025 6.64431C21.2467 6.5032 21.4422 6.42367 21.6461 6.4231V6.4231Z" stroke="#3865F3" stroke-width="1.3719" stroke-linecap="round" stroke-linejoin="round"/>
</svg>
