<svg width="34" height="34" viewBox="0 0 34 34" fill="none" xmlns="http://www.w3.org/2000/svg">
<path fill-rule="evenodd" clip-rule="evenodd" d="M20.0619 5.33087C18.8037 22.8257 23.8024 18.1028 8.21897 27.3124C3.91305 29.961 -1.80854 24.8192 2.57074 20.5967C4.96631 18.6915 8.83605 17.6741 10.0716 14.9007C10.8756 11.8639 10.4642 8.75502 10.4346 5.33087H20.0619Z" fill="#3865F3" stroke="#3865F3" stroke-width="1.3719" stroke-linecap="round" stroke-linejoin="round"/>
<path fill-rule="evenodd" clip-rule="evenodd" d="M19.8813 15.2837C19.9684 19.529 19.8102 20.4123 15.6902 22.94C15.1564 22.137 14.873 21.1993 14.8745 20.2414C14.8745 17.5234 17.1105 15.3156 19.8813 15.2837Z" fill="#3865F3" stroke="#3865F3" stroke-width="1.3719" stroke-linecap="round" stroke-linejoin="round"/>
<path fill-rule="evenodd" clip-rule="evenodd" d="M6.21163 28.0506C2.4237 28.4522 -1.1188 24.2151 2.59355 20.6354C2.67716 20.5687 2.76259 20.5031 2.84983 20.4387C5.00057 21.5225 6.47052 23.7157 6.47052 26.2454C6.47094 26.8555 6.38407 27.4628 6.21243 28.0494L6.21163 28.0506Z" fill="#FEFEFE" stroke="#3865F3" stroke-width="1.3719" stroke-linecap="round" stroke-linejoin="round"/>
<path fill-rule="evenodd" clip-rule="evenodd" d="M9.93782 1H20.5215C20.7255 1.00047 20.921 1.07995 21.0653 1.22108C21.2096 1.3622 21.291 1.55349 21.2916 1.75312V4.57757C21.291 4.77717 21.2098 4.96844 21.0656 5.1096C20.9213 5.25076 20.7259 5.33031 20.5219 5.33088H9.93782C9.73382 5.33031 9.53834 5.25076 9.3941 5.10961C9.24985 4.96846 9.16855 4.77718 9.16797 4.57757V1.75312C9.16861 1.55354 9.24992 1.36231 9.39417 1.2212C9.53841 1.08009 9.73385 1.00057 9.93782 1Z" stroke="#3865F3" stroke-width="1.3719" stroke-linecap="round" stroke-linejoin="round"/>
<path fill-rule="evenodd" clip-rule="evenodd" d="M31.7707 10.254C30.5124 27.7488 35.5112 23.0257 19.9277 32.2357C15.622 34.8841 9.90017 29.7425 14.2795 25.5199C16.6754 23.6146 20.5452 22.5979 21.7807 19.8246C22.5848 16.7876 22.1733 13.6789 22.1438 10.2548L31.7707 10.254Z" fill="#3865F3" stroke="#3865F3" stroke-width="1.3719" stroke-linecap="round" stroke-linejoin="round"/>
<path fill-rule="evenodd" clip-rule="evenodd" d="M31.5901 20.2068C31.6771 24.4521 31.5189 25.3354 27.3989 27.8631C26.8652 27.0601 26.5817 26.1224 26.5833 25.1645C26.5833 22.4459 28.8194 20.2387 31.5901 20.2068Z" fill="#FEFEFE" stroke="#3865F3" stroke-width="1.3719" stroke-linecap="round" stroke-linejoin="round"/>
<path fill-rule="evenodd" clip-rule="evenodd" d="M17.9206 32.9734C14.1328 33.3753 10.5901 29.138 14.3025 25.5583C14.3861 25.4918 14.4716 25.4262 14.559 25.3616C16.7097 26.4453 18.1795 28.6386 18.1795 31.1682C18.18 31.7783 18.0931 32.3855 17.9214 32.972L17.9206 32.9734Z" fill="#FEFEFE" stroke="#3865F3" stroke-width="1.3719" stroke-linecap="round" stroke-linejoin="round"/>
<path fill-rule="evenodd" clip-rule="evenodd" d="M21.6464 5.9231H32.23C32.434 5.92367 32.6295 6.00319 32.7737 6.1443C32.9179 6.28541 32.9993 6.47663 32.9999 6.67622V9.50066C32.9993 9.70026 32.9179 9.89151 32.7737 10.0326C32.6295 10.1738 32.434 10.2534 32.23 10.254H21.6464C21.4424 10.2534 21.247 10.1738 21.1028 10.0326C20.9586 9.89149 20.8773 9.70024 20.8767 9.50066V6.67622C20.8773 6.47665 20.9586 6.28542 21.1028 6.14431C21.247 6.0032 21.4424 5.92367 21.6464 5.9231V5.9231Z" stroke="#3865F3" stroke-width="1.3719" stroke-linecap="round" stroke-linejoin="round"/>
</svg>
