<svg width="33" height="25" viewBox="0 0 33 25" fill="none" xmlns="http://www.w3.org/2000/svg">
<path d="M28.949 4.71939H27.1284C26.7177 4.71972 26.311 4.63876 25.9318 4.48119C25.5525 4.32361 25.2082 4.09254 24.9187 3.80128L22.5378 1.42041C21.6632 0.544674 20.4766 0.052115 19.2388 0.0510254H13.7613C12.5236 0.052115 11.337 0.544674 10.4623 1.42041L8.08145 3.80128C7.79192 4.09254 7.44761 4.32361 7.06836 4.48119C6.68911 4.63876 6.28243 4.71972 5.87175 4.71939H4.05109C3.22567 4.71939 2.43406 5.04729 1.8504 5.63095C1.26674 6.21461 0.938843 7.00622 0.938843 7.83164V21.8367C0.938843 22.6622 1.26674 23.4538 1.8504 24.0374C2.43406 24.6211 3.22567 24.949 4.05109 24.949H28.949C29.7745 24.949 30.5661 24.6211 31.1497 24.0374C31.7334 23.4538 32.0613 22.6622 32.0613 21.8367V7.83164C32.0613 7.00622 31.7334 6.21461 31.1497 5.63095C30.5661 5.04729 29.7745 4.71939 28.949 4.71939ZM16.5001 20.2806C15.269 20.2806 14.0655 19.9156 13.0419 19.2316C12.0183 18.5476 11.2205 17.5755 10.7494 16.4381C10.2783 15.3008 10.155 14.0492 10.3952 12.8418C10.6354 11.6344 11.2282 10.5253 12.0987 9.65475C12.9692 8.78424 14.0783 8.19141 15.2857 7.95124C16.4932 7.71107 17.7447 7.83433 18.8821 8.30545C20.0195 8.77657 20.9916 9.57437 21.6755 10.598C22.3595 11.6216 22.7246 12.825 22.7246 14.0561C22.7246 15.707 22.0688 17.2902 20.9014 18.4575C19.7341 19.6248 18.1509 20.2806 16.5001 20.2806ZM20.0169 13.4337C18.7617 12.8239 17.7479 11.81 17.1381 10.5549C17.0782 10.4371 16.9869 10.3383 16.8743 10.2692C16.7617 10.2001 16.6322 10.1636 16.5001 10.1636C16.368 10.1636 16.2385 10.2001 16.1259 10.2692C16.0132 10.3383 15.9219 10.4371 15.8621 10.5549C15.2523 11.81 14.2384 12.8239 12.9832 13.4337C12.8689 13.492 12.7733 13.5813 12.7072 13.6913C12.6412 13.8014 12.6074 13.9278 12.6098 14.0561C12.6158 14.1765 12.6536 14.2931 12.7192 14.3942C12.7847 14.4953 12.8758 14.5773 12.9832 14.6319C14.2467 15.2428 15.2667 16.2628 15.8776 17.5263C15.9322 17.6337 16.0142 17.7248 16.1153 17.7904C16.2164 17.8559 16.333 17.8937 16.4534 17.8998H16.5001C16.6204 17.8937 16.737 17.8559 16.8381 17.7904C16.9392 17.7248 17.0212 17.6337 17.0758 17.5263C17.6867 16.2628 18.7067 15.2428 19.9702 14.6319C20.0864 14.5837 20.187 14.5046 20.2611 14.403C20.3352 14.3014 20.38 14.1814 20.3904 14.0561C20.3927 13.9278 20.3589 13.8014 20.2929 13.6913C20.2269 13.5813 20.1312 13.492 20.0169 13.4337Z" fill="white"/>
</svg>
