<svg width="20" height="20" viewBox="0 0 20 20" fill="none" xmlns="http://www.w3.org/2000/svg">
<g id="ai-magic">
<path id="Vector" d="M8.33333 5.83334L7.90346 6.99504C7.33978 8.51834 7.05794 9.28 6.50232 9.83567C5.94669 10.3913 5.18503 10.6731 3.66171 11.2368L2.5 11.6667L3.66171 12.0965C5.18503 12.6603 5.94669 12.9421 6.50232 13.4977C7.05794 14.0533 7.33978 14.815 7.90346 16.3383L8.33333 17.5L8.76317 16.3383C9.32692 14.815 9.60875 14.0533 10.1643 13.4977C10.72 12.9421 11.4817 12.6603 13.0049 12.0965L14.1667 11.6667L13.0049 11.2368C11.4817 10.6731 10.72 10.3913 10.1643 9.83567C9.60875 9.28 9.32692 8.51834 8.76317 6.99504L8.33333 5.83334Z" fill="#FF512D"/>
<path id="Vector_2" opacity="0.5" d="M15 2.5L14.8158 2.99788C14.5742 3.65073 14.4534 3.97716 14.2153 4.21528C13.9772 4.4534 13.6507 4.57419 12.9979 4.81577L12.5 5L12.9979 5.18423C13.6507 5.42581 13.9772 5.5466 14.2153 5.78472C14.4534 6.02284 14.5742 6.34927 14.8158 7.00212L15 7.5L15.1842 7.00212C15.4258 6.34927 15.5466 6.02284 15.7847 5.78472C16.0228 5.5466 16.3493 5.42581 17.0021 5.18423L17.5 5L17.0021 4.81577C16.3493 4.57419 16.0228 4.4534 15.7847 4.21528C15.5466 3.97716 15.4258 3.65073 15.1842 2.99788L15 2.5Z" fill="#FF512D"/>
</g>
</svg>
