<svg width="40" height="40" viewBox="0 0 40 40" fill="none" xmlns="http://www.w3.org/2000/svg">
<rect x="0.54054" y="0.54054" width="38.9189" height="38.9189" rx="19.4595" stroke="#DDDEE5" stroke-width="1.08108"/>
<g clip-path="url(#clip0_1_697)">
<path d="M15.4043 19.2342C15.4043 17.0687 15.4043 15.9851 16.0774 15.3128C16.7497 14.6396 17.8333 14.6396 19.9989 14.6396H22.2962C24.4618 14.6396 25.5453 14.6396 26.2177 15.3128C26.8908 15.9851 26.8908 17.0687 26.8908 19.2342V23.0631C26.8908 25.2287 26.8908 26.3122 26.2177 26.9846C25.5453 27.6577 24.4618 27.6577 22.2962 27.6577H19.9989C17.8333 27.6577 16.7497 27.6577 16.0774 26.9846C15.4043 26.3122 15.4043 25.2287 15.4043 23.0631V19.2342Z" stroke="#373644" stroke-width="0.986157"/>
<path d="M15.4047 25.3604C14.7954 25.3604 14.2111 25.1184 13.7803 24.6876C13.3495 24.2567 13.1074 23.6724 13.1074 23.0631V18.4685C13.1074 15.5808 13.1074 14.1366 14.0049 13.2399C14.9016 12.3424 16.3458 12.3424 19.2335 12.3424H22.2966C22.9059 12.3424 23.4902 12.5844 23.921 13.0153C24.3519 13.4461 24.5939 14.0304 24.5939 14.6397" stroke="#373644" stroke-width="0.986157"/>
</g>
<defs>
<clipPath id="clip0_1_697">
<rect width="18" height="18" fill="white" transform="translate(10.8105 10.8108)"/>
</clipPath>
</defs>
</svg>
