<svg width="159" height="152" viewBox="0 0 159 152" fill="none" xmlns="http://www.w3.org/2000/svg">
<path d="M117.383 22.6818L117.453 22.7763L117.433 22.892L116.369 28.8515L116.319 29.1325L116.04 29.0695C114.282 28.6716 112.481 28.5023 110.681 28.5657L110.588 28.569L110.512 28.5149C109.807 28.0098 109.067 27.5557 108.298 27.1561L108.082 27.0439L108.169 26.8166C108.527 25.8824 108.871 23.9495 109.18 21.9612C109.275 21.3551 109.366 20.7451 109.453 20.1613C109.637 18.9252 109.804 17.8061 109.948 17.089C108.916 15.7152 108.364 13.6478 108.576 11.4719C108.79 9.28099 109.743 7.27103 111.156 6.10668C111.532 5.77466 111.969 5.52008 112.443 5.35749C112.918 5.19435 113.421 5.12706 113.923 5.15945L113.923 5.15927L113.932 5.16027C115.746 5.34408 117.192 7.04211 117.754 9.33044L117.785 9.4541L117.709 9.55676C116.496 11.2093 115.761 13.1662 115.583 15.213L115.583 15.213L115.582 15.2159C115.295 18.1522 115.982 20.79 117.383 22.6818Z" fill="#504EF3" fill-opacity="0.3" stroke="#605EF4" stroke-width="0.545221"/>
<path d="M125.651 26.5663L125.557 26.4757C124.293 25.2538 123.604 23.1688 123.658 21.3787C123.916 18.7621 125.098 16.0938 126.823 14.6765L126.823 14.6765C126.995 14.535 127.174 14.4053 127.357 14.2829L127.503 14.1856L127.475 14.0125C127.051 11.4068 125.496 9.3653 123.517 9.16455L123.507 9.16353L123.507 9.16371C123.006 9.13151 122.503 9.19892 122.028 9.3621C121.554 9.52473 121.117 9.77929 120.741 10.1112C119.327 11.2756 118.375 13.2856 118.161 15.4762L125.651 26.5663ZM125.651 26.5663L125.639 26.6962M125.651 26.5663L125.639 26.6962M125.639 26.6962L125.179 31.7941L125.145 32.1748L124.796 32.0183C122.931 31.1814 121.017 30.4596 119.065 29.8569L118.852 29.791M125.639 26.6962L118.852 29.791M118.852 29.791L118.874 29.5689M118.852 29.791L118.874 29.5689M118.874 29.5689L119.698 21.4526M118.874 29.5689L119.698 21.4526M119.698 21.4526C118.304 19.842 117.974 17.3939 118.161 15.4763L119.698 21.4526Z" fill="#504EF3" fill-opacity="0.3" stroke="#605EF4" stroke-width="0.545221"/>
<path d="M105.775 25.8261L105.686 26.0673L105.44 25.9919C103.171 25.2962 100.771 25.1587 98.4407 25.5912C96.8076 25.9018 95.2407 26.4934 93.8089 27.3399L93.2368 27.6782L93.4066 27.0356C93.5344 26.5521 93.625 25.6282 93.6886 24.4527C93.7517 23.2867 93.7872 21.9001 93.8118 20.5083C93.8252 19.7498 93.8353 18.9882 93.845 18.2598C93.8703 16.3633 93.8926 14.6927 93.9613 13.8935C93.6557 12.5847 93.5542 11.1435 93.7001 9.64991L93.9714 9.67642L93.7001 9.64991C94.0025 6.5548 95.361 3.71651 97.3647 2.06808L97.3647 2.06807C98.237 1.35055 99.6699 0.50752 101.455 0.689071C104.18 0.965438 106.374 3.55786 107.116 7.06992L107.135 7.16021L107.096 7.24351C106.501 8.49049 106.131 9.83334 106.002 11.2104L106.002 11.2104L106.001 11.2154C105.728 13.6379 106.276 16.0836 107.557 18.1573L107.595 18.2181L107.597 18.2895C107.635 19.2011 107.398 20.4869 107.05 21.8279C106.699 23.1768 106.227 24.6092 105.775 25.8261Z" fill="#504EF3" fill-opacity="0.3" stroke="#605EF4" stroke-width="0.545221"/>
<path d="M133.134 29.255L133.135 29.2782L133.132 29.3013L132.428 35.7131L132.379 36.1621L132.005 35.9093C130.658 34.9993 129.254 34.1766 127.803 33.4459L127.66 33.374L127.653 33.2142L127.279 24.5329C126.553 23.776 126.208 22.5606 126.239 21.5597L126.239 21.5506L126.24 21.5416C126.421 19.6864 127.244 17.6962 128.459 16.694C128.777 16.4132 129.146 16.1976 129.546 16.0596C129.948 15.921 130.373 15.8633 130.797 15.8898L130.797 15.8896L130.807 15.8906C131.796 15.9895 132.859 16.7029 133.676 17.7389L133.676 17.7389L133.678 17.7415C134.804 19.2041 135.352 21.0319 135.217 22.8735L135.21 22.9668L135.148 23.0362C134.908 23.3015 134.69 23.5853 134.495 23.8849C133.495 25.4877 133.019 27.3651 133.134 29.255Z" fill="#504EF3" fill-opacity="0.3" stroke="#605EF4" stroke-width="0.545221"/>
<path d="M134.901 38.0545L134.786 37.9611L134.801 37.8138L135.72 29.2504C135.615 27.8759 135.942 26.5033 136.654 25.3257L136.654 25.3256L136.659 25.318C136.998 24.7976 137.779 23.8328 139.006 23.7604C140.261 23.6846 141.474 24.6177 142.213 26.063L142.214 26.0628L142.219 26.0742C142.783 27.3148 142.958 28.6984 142.718 30.0398L142.718 30.0408C141.875 34.6555 141.396 39.3302 141.285 44.0217L141.266 44.8192L140.793 44.1769C139.718 42.7179 138.521 41.354 137.214 40.1002L137.214 40.0998C136.443 39.3574 135.665 38.6752 134.901 38.0545Z" fill="#504EF3" fill-opacity="0.3" stroke="#605EF4" stroke-width="0.545221"/>
<path d="M94.0624 134.286L94.0639 134.293C95.9894 144.39 105.204 150.857 115.068 148.999M94.0624 134.286L115.018 148.731M94.0624 134.286L94.0614 134.278C92.8565 125.182 95.3961 115.787 97.7298 109.517C100.18 102.935 100.615 94.3732 99.8166 85.8216C99.0216 77.3025 97.0065 68.8224 94.5721 62.3697C91.1119 59.3168 88.6919 54.8716 87.7422 49.8335C85.7896 39.475 90.733 29.6913 98.9219 28.1477C102.156 27.538 105.482 28.3186 108.428 30.2326L94.0624 134.286ZM115.068 148.999C115.068 148.999 115.068 148.998 115.068 148.998L115.018 148.731M115.068 148.999C115.067 148.999 115.066 148.999 115.065 148.999L115.018 148.731M115.068 148.999C117.421 148.581 119.665 147.689 121.664 146.376C123.663 145.062 125.375 143.355 126.697 141.357M115.018 148.731C117.336 148.32 119.546 147.441 121.514 146.148C123.482 144.855 125.168 143.173 126.47 141.205M126.697 141.357C126.697 141.357 126.697 141.357 126.696 141.357L126.47 141.205M126.697 141.357C126.697 141.356 126.697 141.356 126.697 141.356L126.47 141.205M126.697 141.357C129.929 136.536 131.408 129.843 131.126 121.494C131.051 119.241 130.782 117.015 130.531 115.142C129.134 104.734 132.719 95.1066 136.551 84.833L136.551 84.8324L136.552 84.8314L136.552 84.8308L136.554 84.8264L136.298 84.7311L136.554 84.8264L136.558 84.8134C139.193 77.7503 141.929 70.415 143.022 62.5732C143.583 58.7269 143.15 54.7988 141.766 51.1654L141.763 51.1582L141.763 51.1582C140.336 47.7096 138.199 44.6021 135.492 42.0405C132.618 39.2856 129.317 37.0201 125.717 35.3337C125.717 35.3336 125.716 35.3334 125.716 35.3332L125.6 35.58C125.528 35.5423 113.732 31.3834 108.327 30.4922L126.47 141.205" fill="#504EF3" fill-opacity="0.3" stroke="#605EF4" stroke-width="0.545221"/>
<path d="M41.5851 22.7766L41.6561 22.6815C43.0692 20.79 43.761 18.1527 43.4718 15.2168L43.4715 15.2139L43.4715 15.2139C43.2921 13.1675 42.5502 11.2105 41.3271 9.55782L41.251 9.45505L41.2818 9.33073C41.8488 7.04119 43.3071 5.34403 45.1345 5.1604L45.1443 5.15941L45.1443 5.15959C45.6496 5.12723 46.1561 5.19446 46.635 5.35741C47.1122 5.51982 47.5526 5.77416 47.931 6.10597C49.3555 7.26979 50.3161 9.27951 50.5317 11.471L41.5851 22.7766ZM41.5851 22.7766L41.6061 22.893M41.5851 22.7766L41.6061 22.893M41.6061 22.893L42.6789 28.8526L42.7292 29.1317L43.0065 29.0695C44.7794 28.6715 46.5959 28.5021 48.4115 28.5656L48.5039 28.5688L48.5795 28.5152C49.2905 28.01 50.0367 27.5559 50.8124 27.1562L51.0307 27.0438M41.6061 22.893L51.0307 27.0438M51.0307 27.0438L50.9424 26.8154M51.0307 27.0438L50.9424 26.8154M50.9424 26.8154C50.5811 25.8813 50.235 23.9485 49.9229 21.9602C49.8277 21.3542 49.7359 20.7442 49.648 20.1603C49.4621 18.9247 49.2937 17.8059 49.1486 17.0887M50.9424 26.8154L49.1486 17.0887M49.1486 17.0887C50.189 15.7146 50.7463 13.6469 50.5317 11.471L49.1486 17.0887Z" fill="#504EF3" fill-opacity="0.3" stroke="#605EF4" stroke-width="0.545221"/>
<path d="M33.4148 26.4754L33.3198 26.5664L33.3317 26.6971L33.7955 31.795L33.8299 32.1731L34.1776 32.0184C36.0581 31.1814 37.988 30.4596 39.9565 29.8569L40.1714 29.7911L40.1485 29.5679L39.318 21.4525C40.7236 19.8415 41.0566 17.3931 40.8675 15.4753C40.6518 13.2841 39.6912 11.2744 38.2663 10.1105C37.8879 9.77879 37.4475 9.52448 36.9703 9.36202C36.4916 9.19902 35.9851 9.13168 35.4798 9.16385L35.4798 9.16367L35.4698 9.16468C33.477 9.36524 31.9079 11.4059 31.4806 14.0129L31.4522 14.1865L31.5987 14.2834C31.7836 14.4059 31.9639 14.5356 32.1376 14.6772L32.1376 14.6772C33.8775 16.095 35.0693 18.7635 35.3292 21.3796C35.3831 23.1691 34.6892 25.2536 33.4148 26.4754Z" fill="#504EF3" fill-opacity="0.3" stroke="#605EF4" stroke-width="0.545221"/>
<path d="M53.3607 25.8273L53.4502 26.0664L53.6951 25.9919C55.9825 25.296 58.4037 25.1585 60.7539 25.5911C62.4011 25.9018 63.9816 26.4936 65.4256 27.3403L65.9988 27.6764L65.8278 27.0345C65.699 26.5511 65.6076 25.6273 65.5435 24.4519C65.4798 23.2859 65.4441 21.8993 65.4193 20.5075C65.4058 19.7491 65.3955 18.9874 65.3857 18.2591C65.3602 16.3628 65.3378 14.6923 65.2686 13.8929C65.5766 12.5839 65.679 11.1426 65.5319 9.64899L65.2604 9.67642L65.5319 9.64898C65.2269 6.55337 63.8569 3.71532 61.8372 2.06739L61.8372 2.06739C60.9578 1.35003 59.514 0.507785 57.7156 0.68921C54.9694 0.965436 52.7567 3.55697 52.0085 7.07028L51.9892 7.16111L52.0293 7.2447C52.6283 8.49169 53.0017 9.83445 53.1322 11.2113L53.1321 11.2113L53.1327 11.2163C53.408 13.6385 52.8554 16.0837 51.5642 18.1571L51.5261 18.2183L51.5231 18.2902C51.4857 19.202 51.7239 20.488 52.0756 21.8291C52.4293 23.178 52.9054 24.6104 53.3607 25.8273Z" fill="#504EF3" fill-opacity="0.3" stroke="#605EF4" stroke-width="0.545221"/>
<path d="M25.7747 29.2557L25.7732 29.279L25.7758 29.3022L26.4859 35.7141L26.5352 36.1596L26.9085 35.9095C28.2668 34.9996 29.6819 34.1767 31.1451 33.4461L31.2892 33.3741L31.2962 33.2135L31.6736 24.5329C32.4054 23.7758 32.7538 22.5602 32.7226 21.5589L32.7224 21.5497L32.7215 21.5407C32.5386 19.685 31.7088 17.695 30.4838 16.6932C30.1642 16.4127 29.7924 16.1974 29.3894 16.0595C28.9848 15.9211 28.5567 15.8635 28.1294 15.8899L28.1294 15.8897L28.1193 15.8907C27.1236 15.9895 26.0516 16.7023 25.2276 17.7386L25.2276 17.7386L25.2256 17.7412C24.0906 19.204 23.5378 21.0323 23.6737 22.8744L23.6806 22.9679L23.7437 23.0372C23.9851 23.3025 24.2052 23.5863 24.4021 23.886C25.4104 25.4889 25.8902 27.3662 25.7747 29.2557Z" fill="#504EF3" fill-opacity="0.3" stroke="#605EF4" stroke-width="0.545221"/>
<path d="M23.9883 38.0548L24.1047 37.9611L24.0887 37.8128L23.1627 29.2496C23.2682 27.8747 22.9387 26.502 22.2203 25.3245L22.2204 25.3244L22.2154 25.3169C21.8733 24.7961 21.0863 23.8329 19.852 23.7606C18.5881 23.6849 17.3656 24.6167 16.6195 26.0629L16.6193 26.0627L16.614 26.0742C16.0444 27.3151 15.8687 28.6991 16.1104 30.0409L16.1106 30.0419C16.9602 34.6565 17.4433 39.3311 17.5555 44.0225L17.5744 44.8136L18.0471 44.1772C19.1307 42.7182 20.3379 41.3543 21.6553 40.1005L21.6557 40.1002C22.433 39.3577 23.2171 38.6756 23.9883 38.0548Z" fill="#504EF3" fill-opacity="0.3" stroke="#605EF4" stroke-width="0.545221"/>
<path d="M65.1667 134.285L65.1652 134.293C63.2232 144.392 53.931 150.857 43.9889 148.998M65.1667 134.285L44.0389 148.731M65.1667 134.285L65.1677 134.278C66.3827 125.181 63.8218 115.786 61.4687 109.516C58.998 102.934 58.56 94.3724 59.3646 85.821C60.1662 77.3022 62.198 68.8224 64.6525 62.3699C68.1415 59.3171 70.5818 54.8716 71.5395 49.8331C73.5087 39.4725 68.5226 29.6908 60.2689 28.1478C57.0089 27.5383 53.6558 28.3186 50.6861 30.2326C47.9359 30.6899 43.6163 31.9491 39.9793 33.0964C38.1451 33.675 36.4793 34.2268 35.2675 34.6364C34.6616 34.8412 34.169 35.0105 33.8254 35.1298C33.6536 35.1895 33.5189 35.2367 33.4258 35.2697C33.3793 35.2862 33.3427 35.2993 33.317 35.3086L33.2851 35.3204L33.2724 35.3252L33.264 35.3287C33.2632 35.329 33.2599 35.3304 33.2553 35.3325C33.2546 35.3329 33.2538 35.3332 33.2531 35.3336C29.6237 37.0198 26.2946 39.2852 23.3974 42.0402C20.6675 44.6018 18.5123 47.7093 17.0736 51.1582L17.0735 51.1582L17.0708 51.1654C15.6745 54.7991 15.2383 58.7275 15.804 62.574C16.9059 70.416 19.6649 77.7515 22.3214 84.8146L22.3263 84.8276L22.3263 84.8277L22.3281 84.8325L22.3282 84.8327L22.3287 84.834L22.3288 84.8342C26.1929 95.1079 29.8078 104.735 28.3991 115.142C28.1454 117.015 27.8745 119.242 27.7985 121.495C27.515 129.845 29.006 136.537 32.2649 141.358M65.1667 134.285L32.4915 141.205M43.9889 148.998C43.9886 148.998 43.9883 148.998 43.988 148.998L44.0389 148.731M43.9889 148.998C43.9896 148.999 43.9902 148.999 43.9909 148.999L44.0389 148.731M43.9889 148.998C41.6164 148.581 39.3544 147.689 37.3394 146.376C35.324 145.063 33.5977 143.356 32.2649 141.358M44.0389 148.731C41.7019 148.32 39.4736 147.441 37.4888 146.148C35.504 144.855 33.804 143.173 32.4915 141.205M32.2649 141.358C32.265 141.358 32.2652 141.358 32.2653 141.358L32.4915 141.205M32.2649 141.358C32.2647 141.357 32.2645 141.357 32.2644 141.357L32.4915 141.205" fill="#504EF3" fill-opacity="0.3" stroke="#605EF4" stroke-width="0.545221"/>
</svg>
