<svg width="49" height="48" viewBox="0 0 49 48" fill="none" xmlns="http://www.w3.org/2000/svg">
<rect x="0.5" width="48" height="48" rx="24" fill="#ECECFE"/>
<path d="M28 27.7216H21" stroke="#504EF3" stroke-width="1.2" stroke-linecap="round" stroke-linejoin="round"/>
<path fill-rule="evenodd" clip-rule="evenodd" d="M20.4644 27.3786C18.3924 25.9145 17.1499 23.3583 17.5874 20.5443C18.0611 17.5028 20.5963 15.075 23.6541 14.7168C27.8984 14.2186 31.4999 17.5226 31.4999 21.6666C31.4999 24.0291 30.3263 26.114 28.5331 27.381C28.2111 27.6085 27.9999 27.9608 27.9999 28.3551V31.5833C27.9999 33.1945 26.6944 34.5 25.0833 34.5H23.9166C22.3054 34.5 20.9999 33.1945 20.9999 31.5833V28.3598C20.9999 27.962 20.7876 27.6073 20.4644 27.3786Z" stroke="#504EF3" stroke-width="1.2" stroke-linecap="round" stroke-linejoin="round"/>
<path d="M33.833 15.8333L35.2213 14.4449" stroke="#504EF3" stroke-width="1.2" stroke-linecap="round" stroke-linejoin="round"/>
<path d="M15.1667 27.5L13.7783 28.8883" stroke="#504EF3" stroke-width="1.2" stroke-linecap="round" stroke-linejoin="round"/>
<path d="M16.3336 14.6667L14.9453 13.2783" stroke="#504EF3" stroke-width="1.2" stroke-linecap="round" stroke-linejoin="round"/>
<path d="M33.833 27.5L35.2213 28.8883" stroke="#504EF3" stroke-width="1.2" stroke-linecap="round" stroke-linejoin="round"/>
<path d="M35 21.6667H36.9717" stroke="#504EF3" stroke-width="1.2" stroke-linecap="round" stroke-linejoin="round"/>
<path d="M12.0283 21.6667H14" stroke="#504EF3" stroke-width="1.2" stroke-linecap="round" stroke-linejoin="round"/>
<path d="M21 31H27.8483" stroke="#504EF3" stroke-width="1.2" stroke-linecap="round" stroke-linejoin="round"/>
</svg>
