<svg width="67" height="34" viewBox="0 0 67 34" fill="none" xmlns="http://www.w3.org/2000/svg">
<g clip-path="url(#clip0_1_1296)">
<path fill-rule="evenodd" clip-rule="evenodd" d="M24.3703 0.0936242C26.8575 0.37351 29.2017 1.29083 31.2256 2.99244C32.9831 4.47107 34.3116 6.28418 35.1424 8.44023C35.9565 10.5524 36.2061 12.7439 35.9352 14.9999C35.7199 16.7891 35.1493 18.45 34.2682 20.0086C34.0514 20.3931 34.0247 20.3846 33.7934 20.0071C33.0082 18.726 31.8913 17.8956 30.4404 17.5542C29.9275 17.4335 29.4817 17.6511 29.1279 18.0348C28.9476 18.2301 28.7847 18.4423 28.6219 18.6538C28.4241 18.909 28.1738 18.9298 27.9098 18.806C27.6199 18.6691 27.3619 18.4808 27.158 18.2247C27.0005 18.0271 27.0226 17.8556 27.2174 17.698C27.3825 17.5642 27.5598 17.4412 27.7036 17.2866C28.1487 16.8084 27.8938 15.8088 27.2813 15.5835C27.0226 15.4881 26.8278 15.6265 26.6346 15.7557C26.4443 15.8818 26.2557 15.9933 26.016 15.961C25.6325 15.9103 25.4309 15.6988 25.3487 15.2559C25.2719 14.8392 25.424 14.4801 25.7611 14.2955C25.8539 14.2448 25.9528 14.2048 26.0472 14.1564C26.2602 14.0464 26.563 13.9764 26.5318 13.6766C26.4915 13.2921 26.3477 12.9169 26.0206 12.6754C25.857 12.5547 25.6698 12.6723 25.5123 12.7554C25.2871 12.8738 25.0733 13.0145 24.8526 13.1422C24.4456 13.3798 24.0537 13.3382 23.8202 13.0353C23.4922 12.6093 23.4915 12.0872 23.8323 11.7489C24.1009 11.4821 24.4372 11.3191 24.7834 11.1783C24.8519 11.1507 24.9264 11.1376 24.9957 11.1107C25.4606 10.93 25.545 10.8116 25.2863 10.3825C24.9493 9.82428 25.0839 9.37062 25.4256 8.90542C25.4887 8.82007 25.5336 8.72088 25.5815 8.62554C25.7581 8.27798 25.6858 8.02193 25.3343 7.862C24.4654 7.46755 23.5478 7.27378 22.599 7.21457C22.3312 7.19766 22.2209 7.31299 22.1463 7.58519C21.9918 8.15265 22.0801 8.73318 21.969 9.30833C21.7712 8.96463 21.7879 8.57017 21.7194 8.20263C21.6365 7.76281 21.4235 7.47985 21.0742 7.23303C20.2464 6.64788 19.3775 6.14347 18.4295 5.78823C18.1724 5.69211 17.9045 5.61599 17.6359 5.56063C17.3286 5.49758 17.0722 5.58062 16.8386 5.82821C16.1028 6.60866 15.5231 7.50522 14.9342 8.39255C14.2677 9.39599 13.6506 10.4333 12.9856 11.4382C12.8038 11.7127 12.8464 11.8704 13.08 12.048C14.5522 13.1668 16.0229 14.2871 17.4929 15.4097C18.7422 16.3639 19.9893 17.3212 21.2371 18.277L24.8519 21.0266C25.1562 21.2696 25.4994 21.3457 25.8859 21.3665L30.7143 21.5664C30.8299 21.581 30.9402 21.6233 31.0277 21.711C31.0993 21.7825 31.1556 21.8594 31.1152 21.9663C31.0802 22.0608 30.9973 22.0862 30.9083 22.0847L26.3614 21.9647C25.9589 21.9447 25.5564 21.9232 25.1555 21.8886C24.9013 21.8663 24.6913 21.7187 24.5163 21.551L21.3672 19.2435C20.2213 18.3985 19.0816 17.545 17.9426 16.6915C16.3767 15.5189 14.8139 14.3424 13.2489 13.1691C13.0107 12.9907 12.7642 12.8231 12.5359 12.6331C12.4036 12.5224 12.3412 12.5147 12.2575 12.6839C12.0155 13.1714 11.7477 13.6466 11.5103 14.1364C11.4236 14.3163 11.3323 14.3409 11.2067 14.214C10.8659 13.8719 10.4946 13.9726 10.1149 14.1171C9.64547 14.2963 9.59068 14.2548 9.58612 13.7473C9.57927 12.9645 9.55645 12.1787 9.67666 11.4036C9.83416 10.3887 10.1012 9.39907 10.4695 8.43869C11.2433 6.42182 12.4629 4.7179 14.0516 3.28386C15.1738 2.2712 16.4376 1.4746 17.8414 0.914059C18.8274 0.520374 19.8333 0.208962 20.8947 0.0974688C22.0717 -0.0263269 23.2351 -0.0309405 24.3695 0.095931L24.3703 0.0936242Z" fill="#00049D"/>
<path fill-rule="evenodd" clip-rule="evenodd" d="M28.6608 24.0143C27.2913 24.0143 25.9217 24.012 24.5522 24.0174C24.3422 24.0181 24.1611 23.9735 23.9869 23.8505C22.7619 22.9862 21.5324 22.1289 20.3066 21.2669C18.969 20.325 17.6315 19.3831 16.2969 18.4358C14.8581 17.4139 13.4217 16.3889 11.9882 15.3601C11.7615 15.1971 11.5637 14.9995 11.5218 14.6988C11.5104 14.6166 11.4921 14.5197 11.588 14.4705C11.6686 14.429 11.728 14.4874 11.7866 14.5335C13.4217 15.8099 15.1442 16.9633 16.8356 18.1597C18.1968 19.1232 19.5701 20.0697 20.9336 21.0286C21.9592 21.7498 22.981 22.4772 23.9983 23.21C24.1368 23.31 24.2699 23.3599 24.4365 23.3599C27.292 23.3576 30.1483 23.3584 33.0037 23.3584C33.3043 23.3584 33.4899 23.2592 33.7402 23.0085C33.8277 22.927 33.8734 22.8778 33.9571 22.934C34.0606 23.0032 33.9852 23.0739 33.9358 23.1469C33.7501 23.4245 33.512 23.6529 33.2784 23.8866C33.1437 24.022 32.9718 24.0143 32.8006 24.0143C31.4204 24.0143 30.0402 24.0143 28.66 24.0143H28.6608Z" fill="#373644"/>
<path d="M7.4168 21.4034V23.0974H2.97037C2.84864 23.122 2.72994 23.1589 2.61505 23.2081C2.4994 23.2573 2.39365 23.3188 2.29626 23.3919C2.21104 23.4534 2.13191 23.5272 2.05963 23.6125C1.98659 23.6986 1.91963 23.7909 1.85877 23.8886C1.81007 23.9747 1.77051 24.0731 1.74007 24.1831C1.70964 24.2938 1.70051 24.4037 1.71268 24.5145C1.72485 24.6252 1.7492 24.729 1.78572 24.8274C1.82224 24.9258 1.86485 25.0243 1.91355 25.1219C1.99876 25.2572 2.09843 25.3795 2.21408 25.4902C2.32973 25.601 2.45375 25.6925 2.58766 25.7663L6.28693 27.8101C6.63921 28.0438 6.94887 28.3229 7.21593 28.6482C7.48299 28.9734 7.69603 29.3325 7.85353 29.7254C7.87788 29.8723 7.89918 30.0199 7.91744 30.1676C7.9357 30.3144 7.94483 30.4682 7.94483 30.6281V30.8304C7.94483 30.8673 7.94179 30.9011 7.9357 30.9319C7.92962 30.9626 7.92657 30.9964 7.92657 31.0334C7.89005 31.3771 7.80788 31.7054 7.68082 32.0183C7.55299 32.3313 7.38637 32.6235 7.17941 32.8934C6.96105 33.151 6.70236 33.3601 6.40486 33.5193C6.10737 33.6792 5.78781 33.7838 5.44847 33.8322C5.42412 33.8445 5.39673 33.8507 5.3663 33.8507H0V32.2675H4.92044C5.06652 32.2552 5.2088 32.2183 5.3488 32.1567C5.48804 32.0952 5.6189 32.0214 5.74064 31.9353C5.83803 31.8738 5.91944 31.8007 5.9864 31.7138C6.05335 31.6285 6.11118 31.5362 6.15987 31.4378C6.18422 31.3763 6.20552 31.3155 6.22378 31.2533C6.24204 31.1925 6.25117 31.131 6.25117 31.0695C6.26335 31.008 6.26943 30.9472 6.26943 30.8857V30.702C6.25726 30.5797 6.239 30.4597 6.21465 30.3429C6.1903 30.226 6.1477 30.1191 6.08683 30.0207C6.00161 29.8861 5.89814 29.757 5.77716 29.6339C5.65542 29.5117 5.52836 29.4071 5.39445 29.321C4.72642 28.8912 4.04622 28.4775 3.35384 28.0776C2.66147 27.6786 1.95692 27.2949 1.24019 26.9266C0.973132 26.6813 0.741832 26.4083 0.547814 26.1077C0.353036 25.807 0.201626 25.4848 0.0920633 25.1404C0.0798896 25.0666 0.0707594 24.9904 0.0646726 24.9105C0.0585857 24.8305 0.0555423 24.7482 0.0555423 24.6613V24.5229C0.0555423 24.4799 0.0616291 24.4337 0.0738028 24.3845C0.0738028 24.3476 0.0768462 24.3076 0.082933 24.2646C0.0890199 24.2215 0.0981501 24.1754 0.110324 24.1262C0.134671 23.9547 0.168149 23.7825 0.210756 23.6102C0.253364 23.4388 0.311189 23.2727 0.384231 23.1135C0.590422 22.7944 0.830852 22.5145 1.104 22.2754C1.37714 22.0363 1.68377 21.8425 2.02463 21.6956C2.20648 21.6218 2.39517 21.5641 2.58918 21.5211C2.7832 21.478 2.97798 21.4503 3.172 21.438L3.39036 21.4011H7.41756L7.4168 21.4034Z" fill="#373644"/>
<path d="M10.3681 21.5513V26.2286C10.6474 25.971 10.9601 25.7565 11.3063 25.5842C11.6525 25.412 12.0139 25.2959 12.3905 25.2344C12.4392 25.2221 12.4841 25.2159 12.5274 25.2159H12.6644C12.7861 25.2159 12.9041 25.2252 13.0197 25.2436C13.1354 25.2621 13.2533 25.2836 13.375 25.3082C13.7273 25.3943 14.0491 25.5289 14.3406 25.7134C14.632 25.898 14.8929 26.1248 15.1242 26.3947C15.3669 26.7138 15.5526 27.0644 15.6804 27.4443C15.8082 27.8249 15.8653 28.2116 15.8539 28.6046V33.8532H14.3048V28.1993C14.2926 28.0648 14.2591 27.9325 14.2044 27.8033C14.1496 27.6742 14.0735 27.5488 13.9769 27.4258C13.8186 27.1805 13.6155 26.9906 13.3667 26.8553C13.1179 26.7199 12.847 26.6469 12.5556 26.6338C12.3973 26.6338 12.2429 26.6523 12.0907 26.6892C11.9385 26.7261 11.7963 26.7814 11.6624 26.8553C11.5041 26.9045 11.3618 26.9783 11.234 27.0759C11.1062 27.1744 10.9936 27.2851 10.8969 27.4073C10.7265 27.6649 10.5994 27.9417 10.5142 28.2362C10.429 28.5307 10.3803 28.8383 10.3681 29.1574V33.8532H8.80078V21.552H10.3681V21.5513Z" fill="#373644"/>
<path d="M21.4112 25.2523C21.6174 25.2523 21.8273 25.2707 22.0396 25.3076C22.2519 25.3445 22.4558 25.3999 22.6498 25.4737C22.9534 25.5844 23.2418 25.7252 23.5157 25.8974C23.7888 26.0696 24.0407 26.2719 24.272 26.5048C24.5025 26.7386 24.7064 26.9962 24.8822 27.2784C25.0579 27.5613 25.1949 27.862 25.2923 28.1811C25.3897 28.4879 25.4528 28.807 25.484 29.1384C25.5144 29.4698 25.5175 29.8012 25.4931 30.1326C25.4688 30.4517 25.4018 30.7654 25.293 31.0714C25.1835 31.3782 25.0442 31.6727 24.8738 31.9557C24.7034 32.2379 24.5033 32.4993 24.2727 32.7385C24.0414 32.9776 23.7865 33.1898 23.5073 33.3736C23.2403 33.5335 22.9519 33.6619 22.6415 33.7603C22.3318 33.8588 22.0191 33.9195 21.7033 33.9441C21.6425 33.9564 21.5846 33.9656 21.5299 33.9718C21.4751 33.9779 21.4172 33.981 21.3564 33.981C21.2955 33.9933 21.2377 33.9995 21.1837 33.9995H21.0102C20.8032 33.9995 20.6001 33.9872 20.4 33.9626C20.1999 33.938 19.996 33.9011 19.7898 33.8518C19.4862 33.7534 19.191 33.6219 18.9057 33.4559C18.6203 33.2898 18.3556 33.1029 18.1129 32.8938C17.8823 32.6608 17.6723 32.4055 17.4844 32.1295C17.2957 31.8534 17.1412 31.562 17.0195 31.2544C16.9343 31.0092 16.8673 30.7639 16.8186 30.5178C16.77 30.2725 16.7456 30.0203 16.7456 29.7627V29.5421C16.7456 29.5175 16.7486 29.4867 16.7547 29.4498C16.7608 29.4129 16.7639 29.376 16.7639 29.3391C16.7882 29.0077 16.8521 28.6824 16.9556 28.3633C17.0583 28.0442 17.1892 27.7436 17.3474 27.4606C17.5171 27.1784 17.7088 26.917 17.9211 26.6778C18.1334 26.4387 18.3738 26.2211 18.6409 26.0243C18.9201 25.8405 19.2115 25.6898 19.5159 25.5729C19.8195 25.456 20.1291 25.3738 20.4456 25.3245C20.6031 25.2999 20.7644 25.2815 20.9288 25.2692C21.0931 25.2569 21.2537 25.2569 21.4119 25.2692V25.2507L21.4112 25.2523ZM21.6295 26.744C21.5808 26.744 21.5352 26.7409 21.4926 26.7347C21.45 26.7286 21.4104 26.7255 21.3739 26.7255C21.3252 26.7132 21.2795 26.7071 21.2369 26.7071H21.1C21.0391 26.7071 20.9782 26.7101 20.9181 26.7163C20.8573 26.7224 20.7964 26.7255 20.7355 26.7255C20.6747 26.7378 20.6138 26.7501 20.5529 26.7624C20.492 26.7747 20.4312 26.7932 20.3703 26.8178C20.1268 26.8793 19.9024 26.9739 19.6962 27.1031C19.4892 27.2322 19.3013 27.3945 19.1316 27.5913C18.9856 27.7513 18.8585 27.9166 18.7489 28.0888C18.6394 28.261 18.5488 28.451 18.4758 28.6593C18.4271 28.8685 18.3906 29.083 18.3662 29.3037C18.3419 29.5244 18.3358 29.7458 18.348 29.9665C18.3601 30.1756 18.3967 30.384 18.4575 30.5924C18.5184 30.8008 18.5968 30.9976 18.6942 31.1814C18.7915 31.3782 18.9125 31.5528 19.0586 31.7066C19.2047 31.8603 19.3622 32.0041 19.5326 32.1395C19.7152 32.2625 19.9062 32.3632 20.1071 32.4432C20.3072 32.5232 20.5111 32.5754 20.7173 32.6C20.7903 32.6123 20.8633 32.6216 20.9356 32.6277C21.0087 32.6339 21.0749 32.637 21.1357 32.637C21.2811 32.637 21.4271 32.6247 21.5732 32.6C21.7193 32.5754 21.8585 32.5385 21.9925 32.4893C22.1986 32.4286 22.3904 32.3425 22.5661 32.2317C22.7419 32.121 22.9093 31.9865 23.0675 31.8265C23.225 31.6912 23.365 31.532 23.4868 31.3475C23.6085 31.1629 23.7051 30.973 23.7782 30.7769C23.839 30.6293 23.8817 30.4824 23.906 30.3348C23.9303 30.1872 23.9425 30.0342 23.9425 29.8742V29.6812C23.9425 29.6136 23.9364 29.5497 23.9243 29.4882C23.9364 29.2668 23.9182 29.0523 23.8695 28.8439C23.8208 28.6355 23.7477 28.4325 23.6511 28.2364C23.5537 28.0281 23.4327 27.8404 23.2867 27.6751C23.1406 27.5098 22.9831 27.3653 22.8127 27.2422C22.6422 27.1077 22.4573 27 22.2565 26.9201C22.0564 26.8401 21.8464 26.7886 21.628 26.7632V26.7447L21.6295 26.744Z" fill="#373644"/>
<path d="M30.03 25.1605H30.3214C30.4188 25.1605 30.5154 25.1666 30.6128 25.1789C30.8069 25.1912 31.0047 25.2128 31.2048 25.2435C31.4049 25.2743 31.5966 25.3204 31.7785 25.3819C32.0577 25.468 32.3308 25.5818 32.5987 25.7226C32.8657 25.864 33.1145 26.0263 33.3458 26.2108C33.6007 26.4446 33.829 26.696 34.0291 26.9659C34.2299 27.2358 34.4026 27.531 34.5487 27.8501L28.9907 31.0542L28.2801 29.8017L32.3438 27.4265C32.2342 27.3034 32.1163 27.1866 31.9885 27.0766C31.8606 26.9659 31.7123 26.8682 31.5418 26.7821C31.3714 26.7083 31.1926 26.6468 31.0047 26.5976C30.816 26.5491 30.625 26.5176 30.431 26.5053C30.2484 26.5053 30.0696 26.5207 29.8938 26.5514C29.7173 26.5822 29.5446 26.6283 29.3742 26.6898C28.9975 26.8129 28.6696 27.0213 28.3904 27.3157C28.1104 27.6102 27.9103 27.954 27.7893 28.3469C27.765 28.433 27.7437 28.5222 27.7254 28.6137C27.7071 28.706 27.6919 28.7951 27.6797 28.8805C27.6676 28.9666 27.6615 29.055 27.6615 29.1473V29.4141C27.6737 29.6971 27.7193 29.9701 27.7984 30.2338C27.8776 30.4975 27.9902 30.7528 28.1355 30.9981C28.2686 31.2318 28.436 31.4495 28.6369 31.6517C28.837 31.8539 29.0531 32.0292 29.2836 32.1768C29.4898 32.2876 29.7051 32.3668 29.9304 32.416C30.1548 32.4652 30.3831 32.4898 30.6136 32.4898C30.7467 32.4898 30.8776 32.4836 31.0054 32.4713C31.1333 32.459 31.2573 32.4344 31.379 32.3975C31.5487 32.3368 31.713 32.263 31.8713 32.1768C32.0288 32.0907 32.181 31.9985 32.327 31.9008C32.4845 31.7901 32.6245 31.6647 32.7463 31.5233C32.8672 31.3826 32.9707 31.2318 33.0559 31.0719C33.129 30.8881 33.186 30.7005 33.2287 30.5106C33.2713 30.3207 33.2987 30.1269 33.3108 29.9301L34.8417 30.243C34.8173 30.5621 34.7564 30.8628 34.6591 31.145C34.5617 31.4279 34.4338 31.697 34.2763 31.9554C34.1181 32.213 33.9362 32.4498 33.7293 32.6643C33.5231 32.8796 33.2979 33.0726 33.0552 33.2441C32.8003 33.4163 32.5355 33.5571 32.2624 33.6678C31.9892 33.7785 31.7062 33.8516 31.4148 33.8885C31.3417 33.9008 31.2687 33.9131 31.1964 33.9254C31.1234 33.9377 31.0503 33.95 30.978 33.9623H30.5223C30.377 33.9623 30.2309 33.9561 30.0848 33.9438C29.9387 33.9315 29.7934 33.9131 29.6473 33.8885C29.3559 33.8639 29.0698 33.7939 28.7906 33.677C28.5114 33.5609 28.2496 33.4163 28.0069 33.2441C27.5573 32.8635 27.1837 32.4183 26.8862 31.9085C26.5887 31.3995 26.3726 30.8558 26.2395 30.2792C26.2273 30.1807 26.2212 30.0854 26.2212 29.9939V29.5149C26.2212 29.4472 26.2273 29.3826 26.2395 29.3211C26.2395 29.1865 26.2486 29.0481 26.2668 28.9066C26.2851 28.7659 26.3064 28.6337 26.3308 28.5106C26.3916 28.2162 26.4768 27.9301 26.5856 27.6541C26.6952 27.378 26.8284 27.1112 26.9866 26.8529C27.1563 26.6076 27.3541 26.3831 27.5786 26.1808C27.803 25.9786 28.0495 25.8033 28.3166 25.6564C28.5836 25.5088 28.8598 25.3958 29.1459 25.3158C29.4312 25.2358 29.7257 25.1905 30.03 25.1774V25.1589V25.1605Z" fill="#373644"/>
<path d="M38.376 21.367C38.5099 21.3547 38.6339 21.3455 38.7496 21.3393C38.8652 21.3332 38.9832 21.3301 39.1049 21.3301C39.2266 21.3301 39.3446 21.3332 39.4602 21.3393C39.5759 21.3455 39.6938 21.3608 39.8155 21.3854V22.8033H38.4673L37.9028 22.8956C37.7932 22.9571 37.6905 23.0217 37.5931 23.0886C37.4957 23.1563 37.4044 23.2332 37.3199 23.3185C37.2713 23.3677 37.2286 23.4138 37.1929 23.4569C37.1564 23.5 37.1259 23.5523 37.1016 23.6138C37.0894 23.6507 37.0803 23.6845 37.0742 23.7153C37.0681 23.746 37.059 23.7798 37.0468 23.8168C37.0346 23.8537 37.0255 23.8875 37.0194 23.9183C37.0133 23.949 37.0103 23.9828 37.0103 24.0198V25.2723H39.6345V26.7825H37.0103V33.8542H35.4612V24.0759C35.4734 23.9159 35.4977 23.7568 35.5342 23.5968C35.5707 23.4377 35.6255 23.2839 35.6986 23.1363C35.7594 22.9648 35.8378 22.8079 35.9352 22.6665C36.0326 22.5257 36.1414 22.3935 36.2631 22.2705C36.3841 22.1482 36.5119 22.0436 36.6458 21.9575C36.779 21.8722 36.9251 21.7914 37.0833 21.7184C37.2895 21.6323 37.5026 21.5615 37.7209 21.5069C37.9393 21.4516 38.1584 21.4116 38.3768 21.387V21.3685L38.376 21.367Z" fill="#373644"/>
<path d="M42.0751 25.3259H40.4712V33.8894H42.0751V25.3259Z" fill="#373644"/>
<path d="M44.6074 23.116V25.3258H47.7049V26.7437H44.6439V31.5871C44.6439 31.624 44.647 31.6517 44.6531 31.6702C44.6592 31.6886 44.6622 31.7102 44.6622 31.7348C44.6866 31.8332 44.72 31.9255 44.7626 32.0108C44.8052 32.0969 44.8631 32.1707 44.9354 32.2315C45.0327 32.3053 45.1446 32.3607 45.2724 32.3968C45.4002 32.4337 45.5243 32.4583 45.646 32.4706L47.6683 32.4522V33.8516H45.1355C44.9772 33.8393 44.8189 33.8085 44.6614 33.7593C44.5032 33.7109 44.3579 33.6432 44.224 33.5571C44.0657 33.471 43.9173 33.3672 43.7773 33.2442C43.6373 33.1219 43.5194 32.9804 43.422 32.8205C43.3368 32.6859 43.2668 32.5475 43.2128 32.406C43.158 32.2653 43.1184 32.1208 43.0941 31.9731C43.0819 31.8993 43.0728 31.8293 43.0667 31.7617C43.0606 31.694 43.0576 31.6302 43.0576 31.5687C43.0454 31.5072 43.0393 31.4426 43.0393 31.3757V23.1167H44.6067L44.6074 23.116Z" fill="#373644"/>
<path d="M52.6435 25.2707V26.6332C52.4616 26.6332 52.279 26.6424 52.0972 26.6609C51.9146 26.6793 51.7388 26.7132 51.5684 26.7624C51.4101 26.8116 51.2618 26.8762 51.1218 26.9554C50.9818 27.0354 50.8456 27.1307 50.7117 27.2407C50.5899 27.3637 50.4804 27.4959 50.3837 27.6366C50.2864 27.7781 50.2072 27.9342 50.1464 28.1065C50.0977 28.3025 50.0611 28.4963 50.0368 28.6862C50.0124 28.8769 50.0003 29.0699 50.0003 29.266V33.8518H48.4512V25.3253H49.909V26.3749C50.0064 26.2526 50.1121 26.1296 50.2278 26.0065C50.3434 25.8843 50.4735 25.7797 50.6196 25.6936C50.7535 25.6082 50.8988 25.5344 51.0571 25.4729C51.2146 25.4114 51.3729 25.3691 51.5303 25.3437C51.6513 25.3191 51.77 25.2976 51.8857 25.2791C52.0013 25.2607 52.1192 25.2515 52.241 25.2515H52.3414C52.3719 25.2515 52.4053 25.2576 52.4418 25.2699C52.4784 25.2699 52.5111 25.273 52.5423 25.2791C52.5727 25.2853 52.6062 25.2884 52.6427 25.2884V25.2699L52.6435 25.2707Z" fill="#373644"/>
<path d="M57.4171 25.3259H55.8132V33.8894H57.4171V25.3259Z" fill="#00049D"/>
<path d="M57.4171 23.219H55.8132V24.6215H57.4171V23.219Z" fill="#00049D"/>
<path d="M54.2307 32.0247H51.9717V34H54.2307V32.0247Z" fill="#00049D"/>
<path d="M42.0751 23.219H40.4712V24.6215H42.0751V23.219Z" fill="#373644"/>
<path d="M62.9022 25.2523C63.1083 25.2523 63.3183 25.2707 63.5306 25.3076C63.7429 25.3445 63.9468 25.3999 64.1408 25.4737C64.4444 25.5844 64.7328 25.7252 65.0059 25.8974C65.2791 26.0696 65.5317 26.2719 65.7622 26.5048C65.9927 26.7386 66.1967 26.9962 66.3724 27.2784C66.5482 27.5613 66.6851 27.862 66.7825 28.1811C66.8799 28.4879 66.943 28.807 66.9735 29.1384C67.0039 29.4698 67.007 29.8012 66.9826 30.1326C66.9583 30.4517 66.8913 30.7654 66.7825 31.0714C66.6729 31.3782 66.5329 31.6727 66.3633 31.9557C66.1928 32.2379 65.9927 32.4993 65.7622 32.7385C65.5309 32.9776 65.276 33.1898 64.9968 33.3736C64.729 33.5335 64.4406 33.6619 64.1309 33.7603C63.8213 33.8588 63.5086 33.9195 63.1928 33.9441C63.1319 33.9564 63.0741 33.9656 63.0193 33.9718C62.9645 33.9779 62.9067 33.981 62.8466 33.981C62.7857 33.9933 62.7279 33.9995 62.6731 33.9995H62.5004C62.2935 33.9995 62.0903 33.9872 61.8902 33.9626C61.6901 33.938 61.4862 33.9011 61.28 33.8518C60.9764 33.7534 60.6812 33.6219 60.3959 33.4559C60.1106 33.2898 59.8458 33.1029 59.6031 32.8938C59.3718 32.6608 59.1626 32.4055 58.9746 32.1295C58.7859 31.8534 58.6315 31.562 58.5097 31.2544C58.4245 31.0092 58.3576 30.7639 58.3089 30.5178C58.2602 30.2725 58.2358 30.0203 58.2358 29.7627V29.5421C58.2358 29.5175 58.2389 29.4867 58.245 29.4498C58.2511 29.4129 58.2541 29.376 58.2541 29.3391C58.2784 29.0077 58.3424 28.6824 58.4451 28.3633C58.5486 28.0442 58.6787 27.7436 58.8369 27.4606C59.0066 27.1784 59.1983 26.917 59.4106 26.6778C59.6229 26.4387 59.8633 26.2211 60.1304 26.0243C60.4096 25.8405 60.701 25.6898 61.0053 25.5729C61.3089 25.456 61.6186 25.3738 61.9343 25.3245C62.0918 25.2999 62.2531 25.2815 62.4175 25.2692C62.5818 25.2569 62.7424 25.2569 62.9006 25.2692V25.2507L62.9022 25.2523ZM63.1205 26.744C63.0718 26.744 63.0262 26.7409 62.9836 26.7347C62.941 26.7286 62.9014 26.7255 62.8649 26.7255C62.8162 26.7132 62.7705 26.7071 62.7279 26.7071H62.591C62.5301 26.7071 62.4692 26.7101 62.4091 26.7163C62.3483 26.7224 62.2874 26.7255 62.2273 26.7255C62.1664 26.7378 62.1055 26.7501 62.0454 26.7624C61.9846 26.7747 61.9237 26.7932 61.8628 26.8178C61.6194 26.8793 61.3949 26.9739 61.1887 27.1031C60.9818 27.2322 60.7938 27.3945 60.6234 27.5913C60.4773 27.7513 60.3503 27.9166 60.2407 28.0888C60.1311 28.261 60.0398 28.451 59.9675 28.6593C59.9188 28.8685 59.8823 29.083 59.858 29.3037C59.8336 29.5244 59.8275 29.7458 59.8397 29.9665C59.8519 30.1756 59.8884 30.384 59.9493 30.5924C60.0101 30.8008 60.0885 30.9976 60.1859 31.1814C60.2833 31.3782 60.4043 31.5528 60.5504 31.7066C60.6964 31.8603 60.8539 32.0041 61.0244 32.1395C61.2062 32.2625 61.3979 32.3632 61.5981 32.4432C61.7982 32.5232 62.0021 32.5754 62.2083 32.6C62.2813 32.6123 62.3543 32.6216 62.4266 32.6277C62.4997 32.6339 62.5659 32.637 62.6267 32.637C62.7728 32.637 62.9181 32.6247 63.0642 32.6C63.2103 32.5754 63.3495 32.5385 63.4834 32.4893C63.6896 32.4286 63.8814 32.3425 64.0571 32.2317C64.2329 32.121 64.4003 31.9865 64.5585 31.8265C64.716 31.6912 64.856 31.532 64.9778 31.3475C65.0987 31.1629 65.1961 30.973 65.2692 30.7769C65.3293 30.6293 65.3719 30.4824 65.397 30.3348C65.4213 30.1872 65.4335 30.0342 65.4335 29.8742V29.6812C65.4335 29.6136 65.4274 29.5497 65.4153 29.4882C65.4274 29.2668 65.4092 29.0523 65.3605 28.8439C65.3118 28.6355 65.2387 28.4325 65.1421 28.2364C65.0447 28.0281 64.9237 27.8404 64.7777 27.6751C64.6316 27.5098 64.4741 27.3653 64.3036 27.2422C64.1332 27.1077 63.9483 27 63.7482 26.9201C63.5481 26.8401 63.3381 26.7886 63.1198 26.7632V26.7447L63.1205 26.744Z" fill="#00049D"/>
</g>
<defs>
<clipPath id="clip0_1_1296">
<rect width="67" height="34" fill="white"/>
</clipPath>
</defs>
</svg>
