<svg width="200" height="206" viewBox="0 0 200 206" fill="none" xmlns="http://www.w3.org/2000/svg">
<path d="M144.394 31.2477L144.488 31.3747L144.46 31.5303L143.029 39.5439L142.962 39.9217L142.587 39.837C140.224 39.3019 137.801 39.0742 135.381 39.1596L135.256 39.164L135.154 39.0912C134.206 38.412 133.211 37.8014 132.177 37.264L131.886 37.1131L132.004 36.8075C132.485 35.5514 132.947 32.9523 133.363 30.2787C133.49 29.4638 133.613 28.6435 133.73 27.8584C133.978 26.1963 134.203 24.6916 134.396 23.7273C133.009 21.88 132.265 19.1 132.551 16.1743C132.839 13.2282 134.12 10.5255 136.02 8.95987C136.525 8.5134 137.113 8.17108 137.75 7.95246C138.389 7.73309 139.065 7.6426 139.74 7.68616L139.74 7.68592L139.753 7.68726C142.193 7.93443 144.137 10.2177 144.892 13.2947L144.933 13.461L144.832 13.599C143.201 15.8211 142.212 18.4525 141.972 21.2047L141.972 21.2047L141.972 21.2086C141.586 25.1569 142.509 28.7039 144.394 31.2477Z" fill="white" fill-opacity="0.4" stroke="white" stroke-width="0.733134"/>
<path d="M155.384 36.3492L155.51 36.4711L155.494 36.6457L154.876 43.5006L154.83 44.0126L154.361 43.8021C151.853 42.6768 149.28 41.7062 146.655 40.8958L146.368 40.8072L146.398 40.5085L147.506 29.595C145.631 27.4293 145.187 24.1374 145.439 21.5587C145.727 18.6131 147.008 15.9104 148.909 14.3447C149.414 13.8983 150.001 13.556 150.638 13.3374C151.278 13.1179 151.954 13.0273 152.628 13.0706L152.628 13.0704L152.642 13.0717C155.302 13.3417 157.393 16.0868 157.963 19.5905L158.001 19.8233L157.805 19.9542C157.558 20.1188 157.318 20.2931 157.086 20.4834L157.086 20.4834C154.767 22.3892 153.177 25.9771 152.831 29.4955C152.759 31.9026 153.684 34.7062 155.384 36.3492Z" fill="white" fill-opacity="0.4" stroke="white" stroke-width="0.733134"/>
<path d="M128.664 35.8001L128.784 35.4757C129.392 33.8394 130.027 31.9133 130.498 30.0996C130.967 28.2963 131.285 26.5674 131.235 25.3416L131.231 25.2456L131.181 25.1639C129.458 22.3754 128.721 19.0869 129.089 15.8294L129.089 15.8226L129.089 15.8226C129.263 13.971 129.761 12.1653 130.56 10.4886L130.613 10.3765L130.588 10.2551C129.59 5.53268 126.64 2.04679 122.976 1.67511L128.664 35.8001ZM128.664 35.8001L128.333 35.6986M128.664 35.8001L128.333 35.6986M128.333 35.6986C125.284 34.7632 122.056 34.5784 118.923 35.1597C116.727 35.5773 114.62 36.3729 112.694 37.5113L111.925 37.9661L112.153 37.1021C112.325 36.4519 112.447 35.2096 112.532 33.629C112.617 32.0611 112.665 30.1967 112.698 28.3251C112.716 27.3053 112.73 26.2811 112.743 25.3018C112.777 22.7515 112.807 20.5052 112.899 19.4305C112.488 17.6706 112.352 15.7327 112.548 13.7243L112.913 13.76L112.548 13.7243C112.954 9.56248 114.781 5.74595 117.475 3.52939L117.475 3.52938M128.333 35.6986L117.475 3.52938M117.475 3.52938C118.648 2.56456 120.575 1.43097 122.976 1.6751L117.475 3.52938Z" fill="white" fill-opacity="0.4" stroke="white" stroke-width="0.733134"/>
<path d="M165.572 40.0863L165.574 40.1175L165.571 40.1486L164.624 48.7703L164.557 49.3739L164.054 49.034C162.243 47.8105 160.356 46.7041 158.405 45.7217L158.212 45.625L158.203 45.4101L157.7 33.7368C156.724 32.7189 156.259 31.0847 156.301 29.7388L156.301 29.7266L156.302 29.7144C156.546 27.2199 157.653 24.5438 159.287 23.1961C159.714 22.8185 160.21 22.5287 160.748 22.3431C161.288 22.1567 161.86 22.0791 162.43 22.1147L162.43 22.1144L162.444 22.1158C163.774 22.2488 165.204 23.2081 166.302 24.6011L166.302 24.6011L166.305 24.6046C167.818 26.5713 168.555 29.029 168.374 31.5054L168.365 31.6308L168.28 31.7242C167.959 32.0809 167.665 32.4625 167.403 32.8653C166.058 35.0206 165.418 37.5451 165.572 40.0863Z" fill="white" fill-opacity="0.4" stroke="white" stroke-width="0.733134"/>
<path d="M167.948 51.9186L167.793 51.793L167.815 51.5949L169.05 40.08C168.909 38.2318 169.348 36.3862 170.306 34.8027L170.306 34.8026L170.313 34.7924C170.769 34.0925 171.819 32.7953 173.468 32.698C175.156 32.596 176.787 33.8507 177.781 35.7941L177.785 35.8015L177.788 35.8092C178.548 37.4773 178.782 39.3378 178.46 41.1416L178.46 41.143C177.327 47.3481 176.682 53.634 176.533 59.9424L176.507 61.0148L175.871 60.1511C174.426 58.1892 172.816 56.3552 171.059 54.6693L171.059 54.6688C170.022 53.6705 168.977 52.7532 167.948 51.9186Z" fill="white" fill-opacity="0.4" stroke="white" stroke-width="0.733134"/>
<path d="M113.035 181.317L113.037 181.327C115.626 194.903 128.016 203.599 141.278 201.101M113.035 181.317L141.281 201.1C141.28 201.1 141.279 201.1 141.278 201.101M113.035 181.317L113.034 181.306C111.413 169.075 114.828 156.442 117.966 148.012C121.261 139.16 121.845 127.648 120.772 116.149C119.703 104.694 116.994 93.2909 113.72 84.6143C109.067 80.5092 105.813 74.5319 104.536 67.7574C101.911 53.8288 108.558 40.6731 119.569 38.5975C123.918 37.7777 128.391 38.8274 132.351 41.401C136.019 42.016 141.779 43.7091 146.629 45.2518C149.075 46.0298 151.297 46.7719 152.913 47.3226C153.721 47.598 154.378 47.8256 154.836 47.9861C155.065 48.0663 155.244 48.1298 155.369 48.1742C155.431 48.1964 155.479 48.2139 155.514 48.2265L155.556 48.2423L155.573 48.2489L155.585 48.2536L155.585 48.2537C155.586 48.2544 155.592 48.2567 155.599 48.2602C160.44 50.5277 164.879 53.574 168.743 57.2785C172.383 60.723 175.257 64.9014 177.176 69.5387L177.176 69.5387L177.179 69.5483C179.041 74.4339 179.623 79.7158 178.869 84.8877C177.399 95.4323 173.72 105.296 170.177 114.793L170.171 114.811L170.171 114.811L170.168 114.818L170.168 114.818L170.167 114.82C165.015 128.634 160.194 141.579 162.072 155.574C162.411 158.093 162.772 161.087 162.873 164.116C163.251 175.343 161.263 184.342 156.917 190.824M113.035 181.317L156.917 190.824M141.278 201.101C144.443 200.54 147.461 199.34 150.149 197.574C152.837 195.807 155.14 193.511 156.917 190.824M141.278 201.101L156.917 190.824" fill="white" fill-opacity="0.4" stroke="white" stroke-width="0.733134"/>
<path d="M56.0132 31.2473L55.9177 31.3751L55.9459 31.5317L57.3885 39.5453L57.456 39.9206L57.8289 39.8369C60.2129 39.3017 62.6555 39.074 65.0968 39.1594L65.2211 39.1637L65.3227 39.0916C66.2788 38.4123 67.2822 37.8017 68.3252 37.2643L68.6187 37.113L68.5 36.8059C68.0142 35.5499 67.5488 32.951 67.1291 30.2774C67.0011 29.4625 66.8777 28.6423 66.7595 27.8571C66.5094 26.1956 66.283 24.6913 66.0879 23.7269C67.4869 21.8792 68.2363 19.0989 67.9478 16.173C67.6579 13.2263 66.3662 10.5239 64.4507 8.9589C63.9418 8.51273 63.3497 8.17074 62.708 7.95235C62.0641 7.73323 61.383 7.64284 60.7036 7.68635L60.7036 7.68611L60.6903 7.68744C58.2332 7.93436 56.2722 10.2165 55.5098 13.2951L55.4685 13.4623L55.5707 13.6005C57.2154 15.8228 58.213 18.4542 58.4542 21.206L58.4542 21.206L58.4546 21.2099C58.8435 25.1576 57.9133 28.7039 56.0132 31.2473Z" fill="white" fill-opacity="0.4" stroke="white" stroke-width="0.733134"/>
<path d="M44.9313 36.3488L44.8036 36.4712L44.8196 36.647L45.4433 43.5018L45.4895 44.0103L45.957 43.8023C48.4856 42.6769 51.0807 41.7062 53.7276 40.8958L54.0166 40.8073L53.9859 40.5072L52.8692 29.5947C54.7591 27.4286 55.2069 24.1363 54.9526 21.5576C54.6626 18.6112 53.3709 15.9088 51.455 14.3437C50.9461 13.8977 50.354 13.5557 49.7123 13.3373C49.0686 13.1181 48.3875 13.0275 47.7081 13.0708L47.7081 13.0705L47.6947 13.0719C45.0149 13.3416 42.9051 16.0856 42.3306 19.5911L42.2924 19.8245L42.4893 19.9549C42.7379 20.1195 42.9804 20.294 43.2139 20.4843L43.214 20.4844C45.5536 22.3908 47.1561 25.979 47.5055 29.4967C47.5781 31.9031 46.645 34.706 44.9313 36.3488Z" fill="white" fill-opacity="0.4" stroke="white" stroke-width="0.733134"/>
<path d="M71.7518 35.4773L71.8721 35.7988L72.2013 35.6986C75.2772 34.7629 78.5328 34.5781 81.6931 35.1597C83.908 35.5775 86.0331 36.3733 87.9749 37.5118L88.7456 37.9638L88.5157 37.1006C88.3425 36.4506 88.2196 35.2084 88.1333 33.6279C88.0478 32.06 87.9997 30.1956 87.9664 28.324C87.9482 27.3042 87.9344 26.2801 87.9213 25.3007C87.887 22.7508 87.8568 20.5046 87.7637 19.4297C88.1779 17.6696 88.3156 15.7315 88.1178 13.7231C87.7077 9.56056 85.8656 5.74435 83.1496 3.52847L83.1496 3.52846C81.9673 2.56387 80.0259 1.43137 77.6077 1.67527C73.9149 2.04664 70.9396 5.53138 69.9335 10.2556L69.9075 10.3778L69.9615 10.4902C70.767 12.1669 71.269 13.9725 71.4444 15.8239L71.4444 15.8239L71.4451 15.8306C71.8153 19.0876 71.0723 22.3755 69.336 25.1636L69.2848 25.2459L69.2808 25.3425C69.2305 26.5687 69.5509 28.2979 70.0237 30.1011C70.4993 31.9149 71.1394 33.841 71.7518 35.4773Z" fill="white" fill-opacity="0.4" stroke="white" stroke-width="0.733134"/>
<path d="M34.658 40.0872L34.6561 40.1186L34.6595 40.1498L35.6143 48.7715L35.6807 49.3706L36.1826 49.0343C38.009 47.8108 39.9118 46.7044 41.8794 45.7219L42.0732 45.6251L42.0825 45.4092L42.59 33.7368C43.5741 32.7187 44.0425 31.0841 44.0006 29.7377L44.0002 29.7254L43.999 29.7132C43.7531 27.2179 42.6374 24.5421 40.9901 23.1951C40.5604 22.8178 40.0605 22.5283 39.5186 22.3429C38.9745 22.1568 38.3988 22.0793 37.8243 22.1149L37.8243 22.1146L37.8107 22.116C36.4718 22.2488 35.0304 23.2073 33.9223 24.6008L33.9223 24.6007L33.9196 24.6042C32.3935 26.5712 31.6502 29.0296 31.8329 31.5066L31.8422 31.6323L31.927 31.7255C32.2516 32.0823 32.5476 32.4639 32.8123 32.8668C34.1682 35.0222 34.8134 37.5466 34.658 40.0872Z" fill="white" fill-opacity="0.4" stroke="white" stroke-width="0.733134"/>
<path d="M32.256 51.919L32.4126 51.793L32.391 51.5936L31.146 40.079C31.2878 38.2302 30.8447 36.3845 29.8787 34.8011L29.8789 34.801L29.8722 34.7909C29.4122 34.0906 28.3539 32.7954 26.6942 32.6982C24.9947 32.5964 23.3509 33.8493 22.3476 35.7939L22.3437 35.8015L22.3402 35.8091C21.5743 37.4778 21.338 39.3388 21.663 41.143L21.6633 41.1444C22.8057 47.3494 23.4553 53.6352 23.6062 59.9435L23.6316 61.0072L24.2672 60.1515C25.7243 58.1896 27.3475 56.3557 29.119 54.6697L29.1195 54.6693C30.1647 53.6709 31.219 52.7537 32.256 51.919Z" fill="white" fill-opacity="0.4" stroke="white" stroke-width="0.733134"/>
<path d="M87.6266 181.316L87.6246 181.326C85.0134 194.905 72.5194 203.598 59.1512 201.1M87.6266 181.316L59.1486 201.1C59.1495 201.1 59.1503 201.1 59.1512 201.1M87.6266 181.316L87.628 181.306M87.6266 181.316L87.628 181.306M59.1512 201.1C55.9606 200.54 52.9184 199.34 50.2085 197.574C47.4988 195.808 45.1778 193.513 43.3857 190.827M59.1512 201.1L43.3857 190.827M43.3857 190.827C39.0032 184.345 36.998 175.345 37.3794 164.117C37.4815 161.088 37.8457 158.094 38.1869 155.575C40.0811 141.581 35.2203 128.636 30.0244 114.821L30.024 114.82M43.3857 190.827L30.024 114.82M87.628 181.306C89.2618 169.074 85.8183 156.441 82.6541 148.01C79.3318 139.159 78.743 127.647 79.8249 116.148C80.9027 104.693 83.6348 93.2909 86.9353 84.6146C91.6267 80.5096 94.9081 74.5319 96.1959 67.7568C98.8438 53.8254 92.1391 40.6724 81.0408 38.5976C76.6572 37.7781 72.1485 38.8273 68.1552 41.401C64.4572 42.0159 58.6488 43.709 53.7582 45.2518C51.2919 46.0298 49.052 46.7719 47.4225 47.3226C46.6078 47.598 45.9454 47.8256 45.4834 47.9861C45.2524 48.0663 45.0713 48.1298 44.946 48.1742C44.8835 48.1963 44.8344 48.2139 44.7998 48.2265L44.7568 48.2423L44.7398 48.2488L44.7285 48.2534L44.7283 48.2535C44.7266 48.2542 44.7212 48.2566 44.7138 48.26C39.8336 50.5274 35.3571 53.5736 31.4614 57.2781C27.7906 60.7226 24.8926 64.9011 22.9581 69.5388L22.9579 69.5387L22.9542 69.5484C21.0767 74.4344 20.4902 79.7168 21.2508 84.889C22.7326 95.4338 26.4424 105.298 30.0145 114.795L30.021 114.812L30.0211 114.812L30.0236 114.819L30.024 114.82M87.628 181.306L30.024 114.82" fill="white" fill-opacity="0.4" stroke="white" stroke-width="0.733134"/>
</svg>
