<svg width="184" height="64" viewBox="0 0 184 64" fill="none" xmlns="http://www.w3.org/2000/svg">
<rect width="184" height="64" fill="#F5F5F5"/>
<g clip-path="url(#clip0_0_1)">
<rect width="375" height="812" transform="translate(-95 -136)" fill="white"/>
<mask id="mask0_0_1" style="mask-type:alpha" maskUnits="userSpaceOnUse" x="-213" y="-203" width="611" height="584">
<path d="M93.0808 -203V379.9" stroke="#504EF3" stroke-width="0.281322"/>
</mask>
<g mask="url(#mask0_0_1)">
<circle cx="93.5" cy="88.5" r="291.5" fill="url(#paint0_radial_0_1)" fill-opacity="0.25"/>
</g>
<rect x="0.373993" y="0.373993" width="183.252" height="63.252" rx="15.626" fill="#6A6A6A" fill-opacity="0.08" stroke="url(#paint1_linear_0_1)" stroke-width="0.747986"/>
<g clip-path="url(#clip1_0_1)">
<rect x="8" y="8" width="168" height="48" rx="10" fill="url(#paint2_linear_0_1)"/>
<path d="M67.0764 26.27V27.572H62.9464V30.442H66.1664V31.744H62.9464V36H61.3504V26.27H67.0764ZM75.0655 31.954C75.0655 32.2433 75.0468 32.5047 75.0095 32.738H69.1155C69.1622 33.354 69.3908 33.8487 69.8015 34.222C70.2122 34.5953 70.7162 34.782 71.3135 34.782C72.1722 34.782 72.7788 34.4227 73.1335 33.704H74.8555C74.6222 34.4133 74.1975 34.9967 73.5815 35.454C72.9748 35.902 72.2188 36.126 71.3135 36.126C70.5762 36.126 69.9135 35.9627 69.3255 35.636C68.7468 35.3 68.2895 34.8333 67.9535 34.236C67.6268 33.6293 67.4635 32.9293 67.4635 32.136C67.4635 31.3427 67.6222 30.6473 67.9395 30.05C68.2662 29.4433 68.7188 28.9767 69.2975 28.65C69.8855 28.3233 70.5575 28.16 71.3135 28.16C72.0415 28.16 72.6902 28.3187 73.2595 28.636C73.8288 28.9533 74.2722 29.4013 74.5895 29.98C74.9068 30.5493 75.0655 31.2073 75.0655 31.954ZM73.3995 31.45C73.3902 30.862 73.1802 30.3907 72.7695 30.036C72.3588 29.6813 71.8502 29.504 71.2435 29.504C70.6928 29.504 70.2215 29.6813 69.8295 30.036C69.4375 30.3813 69.2042 30.8527 69.1295 31.45H73.3995ZM83.1461 31.954C83.1461 32.2433 83.1275 32.5047 83.0901 32.738H77.1961C77.2428 33.354 77.4715 33.8487 77.8821 34.222C78.2928 34.5953 78.7968 34.782 79.3941 34.782C80.2528 34.782 80.8595 34.4227 81.2141 33.704H82.9361C82.7028 34.4133 82.2781 34.9967 81.6621 35.454C81.0555 35.902 80.2995 36.126 79.3941 36.126C78.6568 36.126 77.9941 35.9627 77.4061 35.636C76.8275 35.3 76.3701 34.8333 76.0341 34.236C75.7075 33.6293 75.5441 32.9293 75.5441 32.136C75.5441 31.3427 75.7028 30.6473 76.0201 30.05C76.3468 29.4433 76.7995 28.9767 77.3781 28.65C77.9661 28.3233 78.6381 28.16 79.3941 28.16C80.1221 28.16 80.7708 28.3187 81.3401 28.636C81.9095 28.9533 82.3528 29.4013 82.6701 29.98C82.9875 30.5493 83.1461 31.2073 83.1461 31.954ZM81.4801 31.45C81.4708 30.862 81.2608 30.3907 80.8501 30.036C80.4395 29.6813 79.9308 29.504 79.3241 29.504C78.7735 29.504 78.3021 29.6813 77.9101 30.036C77.5181 30.3813 77.2848 30.8527 77.2101 31.45H81.4801ZM86.0188 29.588V33.858C86.0188 34.1473 86.0841 34.3573 86.2148 34.488C86.3548 34.6093 86.5881 34.67 86.9148 34.67H87.8948V36H86.6348C85.9161 36 85.3654 35.832 84.9828 35.496C84.6001 35.16 84.4088 34.614 84.4088 33.858V29.588H83.4988V28.286H84.4088V26.368H86.0188V28.286H87.8948V29.588H86.0188ZM95.0885 36.098C94.4351 36.098 93.8471 35.986 93.3245 35.762C92.8018 35.5287 92.3911 35.202 92.0925 34.782C91.7938 34.362 91.6445 33.872 91.6445 33.312H93.3525C93.3898 33.732 93.5531 34.0773 93.8425 34.348C94.1411 34.6187 94.5565 34.754 95.0885 34.754C95.6391 34.754 96.0685 34.6233 96.3765 34.362C96.6845 34.0913 96.8385 33.746 96.8385 33.326C96.8385 32.9993 96.7405 32.7333 96.5445 32.528C96.3578 32.3227 96.1198 32.164 95.8305 32.052C95.5505 31.94 95.1585 31.8187 94.6545 31.688C94.0198 31.52 93.5018 31.352 93.1005 31.184C92.7085 31.0067 92.3725 30.736 92.0925 30.372C91.8125 30.008 91.6725 29.5227 91.6725 28.916C91.6725 28.356 91.8125 27.866 92.0925 27.446C92.3725 27.026 92.7645 26.704 93.2685 26.48C93.7725 26.256 94.3558 26.144 95.0185 26.144C95.9611 26.144 96.7311 26.382 97.3285 26.858C97.9351 27.3247 98.2711 27.9687 98.3365 28.79H96.5725C96.5445 28.4353 96.3765 28.132 96.0685 27.88C95.7605 27.628 95.3545 27.502 94.8505 27.502C94.3931 27.502 94.0198 27.6187 93.7305 27.852C93.4411 28.0853 93.2965 28.4213 93.2965 28.86C93.2965 29.1587 93.3851 29.406 93.5625 29.602C93.7491 29.7887 93.9825 29.938 94.2625 30.05C94.5425 30.162 94.9251 30.2833 95.4105 30.414C96.0545 30.5913 96.5771 30.7687 96.9785 30.946C97.3891 31.1233 97.7345 31.3987 98.0145 31.772C98.3038 32.136 98.4485 32.626 98.4485 33.242C98.4485 33.7367 98.3131 34.2033 98.0425 34.642C97.7811 35.0807 97.3938 35.4353 96.8805 35.706C96.3765 35.9673 95.7791 36.098 95.0885 36.098ZM99.2397 32.136C99.2397 31.3427 99.3983 30.6473 99.7157 30.05C100.042 29.4433 100.49 28.9767 101.06 28.65C101.629 28.3233 102.282 28.16 103.02 28.16C103.953 28.16 104.723 28.384 105.33 28.832C105.946 29.2707 106.361 29.9007 106.576 30.722H104.854C104.714 30.3393 104.49 30.0407 104.182 29.826C103.874 29.6113 103.486 29.504 103.02 29.504C102.366 29.504 101.844 29.7373 101.452 30.204C101.069 30.6613 100.878 31.3053 100.878 32.136C100.878 32.9667 101.069 33.6153 101.452 34.082C101.844 34.5487 102.366 34.782 103.02 34.782C103.944 34.782 104.555 34.376 104.854 33.564H106.576C106.352 34.348 105.932 34.9733 105.316 35.44C104.7 35.8973 103.934 36.126 103.02 36.126C102.282 36.126 101.629 35.9627 101.06 35.636C100.49 35.3 100.042 34.8333 99.7157 34.236C99.3983 33.6293 99.2397 32.9293 99.2397 32.136ZM107.074 32.108C107.074 31.3333 107.233 30.6473 107.55 30.05C107.877 29.4527 108.316 28.9907 108.866 28.664C109.426 28.328 110.042 28.16 110.714 28.16C111.321 28.16 111.848 28.2813 112.296 28.524C112.754 28.7573 113.118 29.0513 113.388 29.406V28.286H114.998V36H113.388V34.852C113.118 35.216 112.749 35.5193 112.282 35.762C111.816 36.0047 111.284 36.126 110.686 36.126C110.024 36.126 109.417 35.958 108.866 35.622C108.316 35.2767 107.877 34.8007 107.55 34.194C107.233 33.578 107.074 32.8827 107.074 32.108ZM113.388 32.136C113.388 31.604 113.276 31.142 113.052 30.75C112.838 30.358 112.553 30.0593 112.198 29.854C111.844 29.6487 111.461 29.546 111.05 29.546C110.64 29.546 110.257 29.6487 109.902 29.854C109.548 30.05 109.258 30.344 109.034 30.736C108.82 31.1187 108.712 31.576 108.712 32.108C108.712 32.64 108.82 33.1067 109.034 33.508C109.258 33.9093 109.548 34.2173 109.902 34.432C110.266 34.6373 110.649 34.74 111.05 34.74C111.461 34.74 111.844 34.6373 112.198 34.432C112.553 34.2267 112.838 33.928 113.052 33.536C113.276 33.1347 113.388 32.668 113.388 32.136ZM120.426 28.16C121.033 28.16 121.574 28.286 122.05 28.538C122.536 28.79 122.914 29.1633 123.184 29.658C123.455 30.1527 123.59 30.75 123.59 31.45V36H122.008V31.688C122.008 30.9973 121.836 30.47 121.49 30.106C121.145 29.7327 120.674 29.546 120.076 29.546C119.479 29.546 119.003 29.7327 118.648 30.106C118.303 30.47 118.13 30.9973 118.13 31.688V36H116.534V28.286H118.13V29.168C118.392 28.8507 118.723 28.6033 119.124 28.426C119.535 28.2487 119.969 28.16 120.426 28.16ZM128.958 28.16C129.565 28.16 130.106 28.286 130.582 28.538C131.068 28.79 131.446 29.1633 131.716 29.658C131.987 30.1527 132.122 30.75 132.122 31.45V36H130.54V31.688C130.54 30.9973 130.368 30.47 130.022 30.106C129.677 29.7327 129.206 29.546 128.608 29.546C128.011 29.546 127.535 29.7327 127.18 30.106C126.835 30.47 126.662 30.9973 126.662 31.688V36H125.066V28.286H126.662V29.168C126.924 28.8507 127.255 28.6033 127.656 28.426C128.067 28.2487 128.501 28.16 128.958 28.16ZM134.41 27.264C134.121 27.264 133.878 27.166 133.682 26.97C133.486 26.774 133.388 26.5313 133.388 26.242C133.388 25.9527 133.486 25.71 133.682 25.514C133.878 25.318 134.121 25.22 134.41 25.22C134.69 25.22 134.928 25.318 135.124 25.514C135.32 25.71 135.418 25.9527 135.418 26.242C135.418 26.5313 135.32 26.774 135.124 26.97C134.928 27.166 134.69 27.264 134.41 27.264ZM135.194 28.286V36H133.598V28.286H135.194ZM140.621 28.16C141.228 28.16 141.769 28.286 142.245 28.538C142.731 28.79 143.109 29.1633 143.379 29.658C143.65 30.1527 143.785 30.75 143.785 31.45V36H142.203V31.688C142.203 30.9973 142.031 30.47 141.685 30.106C141.34 29.7327 140.869 29.546 140.271 29.546C139.674 29.546 139.198 29.7327 138.843 30.106C138.498 30.47 138.325 30.9973 138.325 31.688V36H136.729V28.286H138.325V29.168C138.587 28.8507 138.918 28.6033 139.319 28.426C139.73 28.2487 140.164 28.16 140.621 28.16ZM148.369 28.16C148.967 28.16 149.494 28.2813 149.951 28.524C150.418 28.7573 150.782 29.0513 151.043 29.406V28.286H152.653V36.126C152.653 36.8353 152.504 37.4653 152.205 38.016C151.907 38.576 151.473 39.0147 150.903 39.332C150.343 39.6493 149.671 39.808 148.887 39.808C147.842 39.808 146.974 39.5607 146.283 39.066C145.593 38.5807 145.201 37.918 145.107 37.078H146.689C146.811 37.4793 147.067 37.8013 147.459 38.044C147.861 38.296 148.337 38.422 148.887 38.422C149.531 38.422 150.049 38.226 150.441 37.834C150.843 37.442 151.043 36.8727 151.043 36.126V34.838C150.773 35.202 150.404 35.51 149.937 35.762C149.48 36.0047 148.957 36.126 148.369 36.126C147.697 36.126 147.081 35.958 146.521 35.622C145.971 35.2767 145.532 34.8007 145.205 34.194C144.888 33.578 144.729 32.8827 144.729 32.108C144.729 31.3333 144.888 30.6473 145.205 30.05C145.532 29.4527 145.971 28.9907 146.521 28.664C147.081 28.328 147.697 28.16 148.369 28.16ZM151.043 32.136C151.043 31.604 150.931 31.142 150.707 30.75C150.493 30.358 150.208 30.0593 149.853 29.854C149.499 29.6487 149.116 29.546 148.705 29.546C148.295 29.546 147.912 29.6487 147.557 29.854C147.203 30.05 146.913 30.344 146.689 30.736C146.475 31.1187 146.367 31.576 146.367 32.108C146.367 32.64 146.475 33.1067 146.689 33.508C146.913 33.9093 147.203 34.2173 147.557 34.432C147.921 34.6373 148.304 34.74 148.705 34.74C149.116 34.74 149.499 34.6373 149.853 34.432C150.208 34.2267 150.493 33.928 150.707 33.536C150.931 33.1347 151.043 32.668 151.043 32.136Z" fill="white"/>
<rect x="18" y="16" width="30" height="30" rx="6.15385" fill="#ECECFE"/>
<path d="M35.4231 33.5812H30.4231" stroke="#504EF3" stroke-width="1.2" stroke-linecap="round" stroke-linejoin="round"/>
<path fill-rule="evenodd" clip-rule="evenodd" d="M30.0405 33.3363C28.5605 32.2905 27.673 30.4647 27.9855 28.4547C28.3239 26.2822 30.1347 24.548 32.3189 24.2922C35.3505 23.9363 37.923 26.2963 37.923 29.2563C37.923 30.9438 37.0847 32.433 35.8039 33.338C35.5739 33.5005 35.423 33.7522 35.423 34.0338V36.3397C35.423 37.4905 34.4905 38.423 33.3397 38.423H32.5064C31.3555 38.423 30.423 37.4905 30.423 36.3397V34.0372C30.423 33.753 30.2714 33.4997 30.0405 33.3363Z" stroke="#504EF3" stroke-width="1.2" stroke-linecap="round" stroke-linejoin="round"/>
<path d="M39.5896 25.0896L40.5813 24.0979" stroke="#504EF3" stroke-width="1.2" stroke-linecap="round" stroke-linejoin="round"/>
<path d="M26.2563 33.4231L25.2646 34.4148" stroke="#504EF3" stroke-width="1.2" stroke-linecap="round" stroke-linejoin="round"/>
<path d="M27.0896 24.2563L26.0979 23.2646" stroke="#504EF3" stroke-width="1.2" stroke-linecap="round" stroke-linejoin="round"/>
<path d="M39.5896 33.4231L40.5813 34.4148" stroke="#504EF3" stroke-width="1.2" stroke-linecap="round" stroke-linejoin="round"/>
<path d="M40.4231 29.2563H41.8314" stroke="#504EF3" stroke-width="1.2" stroke-linecap="round" stroke-linejoin="round"/>
<path d="M24.0146 29.2563H25.423" stroke="#504EF3" stroke-width="1.2" stroke-linecap="round" stroke-linejoin="round"/>
<path d="M30.4231 35.923H35.3148" stroke="#504EF3" stroke-width="1.2" stroke-linecap="round" stroke-linejoin="round"/>
</g>
</g>
<defs>
<radialGradient id="paint0_radial_0_1" cx="0" cy="0" r="1" gradientUnits="userSpaceOnUse" gradientTransform="translate(93.5 88.5) rotate(90) scale(291.5)">
<stop stop-color="#504EF3"/>
<stop offset="1" stop-color="#504EF3" stop-opacity="0"/>
</radialGradient>
<linearGradient id="paint1_linear_0_1" x1="92" y1="0" x2="92" y2="64" gradientUnits="userSpaceOnUse">
<stop stop-color="#F2F2F2"/>
<stop offset="1" stop-color="#DFDFDF"/>
</linearGradient>
<linearGradient id="paint2_linear_0_1" x1="92" y1="8" x2="92" y2="56" gradientUnits="userSpaceOnUse">
<stop stop-color="#4145F1"/>
<stop offset="1" stop-color="#5C60FF"/>
</linearGradient>
<clipPath id="clip0_0_1">
<rect width="375" height="812" fill="white" transform="translate(-95 -136)"/>
</clipPath>
<clipPath id="clip1_0_1">
<rect x="8" y="8" width="168" height="48" rx="10" fill="white"/>
</clipPath>
</defs>
</svg>
