<svg width="52" height="52" viewBox="0 0 52 52" fill="none" xmlns="http://www.w3.org/2000/svg">
<rect x="0.5" y="0.5" width="51" height="51" rx="25.5" stroke="#DDDEE5"/>
<path d="M20.5234 23.7222V31.7612C20.5234 31.8669 20.6092 31.9526 20.7148 31.9526H30.2852C30.3359 31.9526 30.3846 31.9325 30.4205 31.8966C30.4564 31.8607 30.4766 31.812 30.4766 31.7612V23.7222C30.4766 23.6714 30.4564 23.6227 30.4205 23.5868C30.3846 23.5509 30.3359 23.5307 30.2852 23.5307H28.3711C28.2188 23.5307 28.0727 23.4702 27.9651 23.3626C27.8574 23.2549 27.7969 23.1088 27.7969 22.9565C27.7969 22.8042 27.8574 22.6582 27.9651 22.5505C28.0727 22.4428 28.2188 22.3823 28.3711 22.3823H30.2852C31.0247 22.3823 31.625 22.9826 31.625 23.7222V31.7612C31.625 32.1166 31.4838 32.4574 31.2326 32.7086C30.9813 32.9599 30.6405 33.1011 30.2852 33.1011H20.7148C20.3595 33.1011 20.0187 32.9599 19.7674 32.7086C19.5162 32.4574 19.375 32.1166 19.375 31.7612V23.7222C19.375 22.9826 19.9753 22.3823 20.7148 22.3823H22.6289C22.7812 22.3823 22.9273 22.4428 23.0349 22.5505C23.1426 22.6582 23.2031 22.8042 23.2031 22.9565C23.2031 23.1088 23.1426 23.2549 23.0349 23.3626C22.9273 23.4702 22.7812 23.5307 22.6289 23.5307H20.7148C20.6641 23.5307 20.6154 23.5509 20.5795 23.5868C20.5436 23.6227 20.5234 23.6714 20.5234 23.7222ZM25.9058 17.1914L28.3941 19.6797C28.4696 19.7498 28.5249 19.8391 28.554 19.9381C28.5831 20.037 28.585 20.142 28.5594 20.2419C28.5339 20.3419 28.4819 20.4331 28.4088 20.5059C28.3358 20.5787 28.2445 20.6305 28.1445 20.6558C28.0447 20.6814 27.9398 20.6796 27.8409 20.6507C27.742 20.6217 27.6527 20.5666 27.5825 20.4912L26.0742 18.9829V27.1675C26.0742 27.3198 26.0137 27.4658 25.906 27.5735C25.7983 27.6812 25.6523 27.7417 25.5 27.7417C25.3477 27.7417 25.2017 27.6812 25.094 27.5735C24.9863 27.4658 24.9258 27.3198 24.9258 27.1675V18.9829L23.4175 20.4912C23.3086 20.5926 23.1646 20.6478 23.0158 20.6452C22.8671 20.6427 22.7251 20.5825 22.6197 20.4774C22.5146 20.3721 22.4545 20.2301 22.4519 20.0813C22.4494 19.9325 22.5046 19.7886 22.6059 19.6797L25.0942 17.1914C25.2019 17.0838 25.3478 17.0234 25.5 17.0234C25.6522 17.0234 25.7981 17.0838 25.9058 17.1914Z" fill="#373644"/>
</svg>
