<svg width="20" height="20" viewBox="0 0 20 20" fill="none" xmlns="http://www.w3.org/2000/svg">
<g id="user-group">
<path id="Vector" d="M17.3117 15C17.9361 15 18.4327 14.6071 18.8787 14.0576C19.7916 12.9328 18.2928 12.034 17.7212 11.5938C17.14 11.1463 16.4912 10.8928 15.8333 10.8333M15 9.16667C16.1506 9.16667 17.0833 8.23392 17.0833 7.08333C17.0833 5.93274 16.1506 5 15 5" fill="#FF512D"/>
<path id="Vector_2" d="M2.68797 15C2.06356 15 1.5669 14.6071 1.12096 14.0576C0.20808 12.9328 1.7069 12.034 2.27855 11.5938C2.85965 11.1463 3.50849 10.8928 4.16634 10.8333M4.58301 9.16667C3.43241 9.16667 2.49967 8.23392 2.49967 7.08333C2.49967 5.93274 3.43241 5 4.58301 5" fill="#FF512D"/>
<path id="Vector_3" d="M6.73617 12.5927C5.8847 13.1192 3.65216 14.1942 5.01192 15.5395C5.67616 16.1967 6.41594 16.6667 7.34603 16.6667H12.6533C13.5834 16.6667 14.3232 16.1967 14.9874 15.5395C16.3472 14.1942 14.1147 13.1192 13.2632 12.5927C11.2664 11.358 8.73292 11.358 6.73617 12.5927Z" fill="#FF512D"/>
<path id="Vector_4" opacity="0.5" d="M12.9163 6.25C12.9163 7.86084 11.6105 9.16667 9.99967 9.16667C8.38884 9.16667 7.08301 7.86084 7.08301 6.25C7.08301 4.63917 8.38884 3.33334 9.99967 3.33334C11.6105 3.33334 12.9163 4.63917 12.9163 6.25Z" fill="#FF512D"/>
</g>
</svg>
